<svg width="357" height="362" viewBox="0 0 357 362" fill="none" xmlns="http://www.w3.org/2000/svg">
<path d="M0.129013 228.795L194.595 340.166V363.75L0.129013 365.776V228.795Z" fill="url(#paint0_linear_1_3026)"/>
<path d="M194.564 340.199L375.077 302.276V158.653L0.141357 228.803L194.564 340.199Z" fill="#DEEBFF"/>
<g style="mix-blend-mode:screen" opacity="0.4">
<path d="M185.868 311.57L363.182 276.677V178.818L53.3955 235.668L185.868 311.57Z" fill="#407BFF"/>
</g>
<path d="M194.596 371V340.198L375.093 302.26L375.013 371H194.596Z" fill="url(#paint1_linear_1_3026)"/>
<path d="M341.894 265.354C342.279 265.562 349.485 267.611 352.152 264.082C354.819 260.552 350.39 255.065 352.898 253.041C355.406 251.016 362.41 253.041 364.098 248.789C365.787 244.538 360.783 242.673 363.597 238.391C365.371 235.687 370.325 234.195 370.099 231.662C369.769 227.992 362.997 226.989 357.076 230.934C351.155 234.88 348.402 231.644 346.518 231.381C344.634 231.118 340.591 231.699 340.726 238.293C340.86 244.887 341.894 265.354 341.894 265.354Z" fill="#455A64"/>
<path d="M341.412 255.978C341.505 255.977 341.594 255.944 341.665 255.883C341.736 255.823 341.782 255.739 341.797 255.647C343.858 243.132 358.404 232.948 365.971 230.764C366.07 230.733 366.154 230.664 366.204 230.573C366.254 230.482 366.267 230.375 366.24 230.275C366.225 230.225 366.201 230.179 366.168 230.139C366.136 230.099 366.096 230.066 366.05 230.041C366.005 230.017 365.955 230.002 365.903 229.996C365.852 229.991 365.8 229.996 365.751 230.012C358.019 232.244 343.118 242.68 341.02 255.519C341.004 255.622 341.029 255.727 341.09 255.811C341.15 255.896 341.242 255.954 341.344 255.972L341.412 255.978Z" fill="white"/>
<path d="M358.564 245.499C358.632 245.499 358.698 245.481 358.757 245.448C358.816 245.415 358.865 245.367 358.9 245.309C358.952 245.219 358.968 245.113 358.942 245.012C358.917 244.912 358.854 244.825 358.766 244.771C358.527 244.63 352.93 241.357 347.419 242.887C347.369 242.9 347.322 242.923 347.281 242.955C347.24 242.987 347.206 243.026 347.181 243.071C347.155 243.116 347.139 243.165 347.132 243.217C347.126 243.268 347.13 243.32 347.144 243.37C347.156 243.42 347.179 243.468 347.211 243.509C347.242 243.55 347.282 243.585 347.327 243.611C347.372 243.636 347.422 243.653 347.473 243.659C347.525 243.665 347.577 243.66 347.627 243.645C352.814 242.208 358.307 245.413 358.362 245.444C358.423 245.48 358.493 245.499 358.564 245.499Z" fill="white"/>
<path d="M239.632 221.652C239.592 222.382 239.381 223.092 239.016 223.724C238.65 224.357 238.141 224.894 237.528 225.293C237.172 225.527 236.741 225.618 236.321 225.548C236.389 225.618 236.466 225.679 236.55 225.728L236.044 225.439L236.017 225.42L235.942 225.372C235.909 225.347 235.877 225.319 235.849 225.289L235.792 225.233C235.792 225.214 235.759 225.195 235.744 225.173C235.674 225.075 235.616 224.969 235.571 224.858L235.534 224.757C235.532 224.739 235.532 224.722 235.534 224.704C235.524 224.675 235.517 224.645 235.511 224.614C235.472 224.442 235.453 224.266 235.455 224.089C235.494 223.361 235.705 222.652 236.07 222.02C236.435 221.388 236.943 220.851 237.555 220.452C237.837 220.274 238.162 220.174 238.496 220.164H238.627L238.747 220.186L238.818 220.205H238.863C238.893 220.213 238.922 220.224 238.949 220.239L239.028 220.28L239.467 220.531C239.396 220.495 239.32 220.468 239.242 220.452C239.524 220.786 239.663 221.217 239.632 221.652ZM236.171 225.499H236.134H236.171Z" fill="#0052CC"/>
<path d="M283.281 245.844L280.315 250.996L279.812 250.703L236.551 225.728C236.467 225.679 236.39 225.618 236.323 225.548C236.051 225.217 235.917 224.794 235.948 224.367C235.988 223.638 236.2 222.928 236.565 222.296C236.93 221.663 237.439 221.126 238.051 220.726C238.334 220.55 238.659 220.452 238.992 220.441C239.082 220.44 239.171 220.45 239.258 220.471C239.337 220.487 239.412 220.514 239.483 220.55L239.521 220.569L283.281 245.844Z" fill="#EBEBEB"/>
<path d="M281.794 245.99C282.956 245.319 283.897 245.862 283.897 247.201C283.858 247.93 283.647 248.64 283.282 249.273C282.916 249.906 282.406 250.443 281.794 250.842C280.635 251.513 279.694 250.969 279.694 249.627C279.734 248.898 279.945 248.189 280.309 247.557C280.674 246.925 281.183 246.388 281.794 245.99Z" fill="#0052CC"/>
<path d="M286.31 249.112C286.295 249.09 286.278 249.07 286.257 249.052L283.577 246.102L283.554 246.079L283.505 246.027L283.479 245.997C283.104 245.622 282.489 245.599 281.799 245.997C281.188 246.395 280.679 246.932 280.315 247.564C279.95 248.196 279.739 248.905 279.7 249.634C279.7 250.413 280.018 250.92 280.509 251.081H280.539C280.59 251.096 280.641 251.107 280.693 251.115H280.727L284.611 251.962C284.848 252.002 285.091 251.949 285.29 251.816C285.64 251.589 285.931 251.282 286.14 250.921C286.35 250.56 286.471 250.155 286.494 249.739C286.506 249.515 286.441 249.294 286.31 249.112Z" fill="#E0E0E0"/>
<path d="M251.948 229.976L251.876 229.935C251.795 229.908 251.709 229.9 251.624 229.912C251.539 229.924 251.459 229.957 251.389 230.006C251.171 230.147 250.989 230.338 250.859 230.563C250.729 230.788 250.653 231.04 250.639 231.3C250.632 231.383 250.645 231.467 250.675 231.545C250.706 231.623 250.754 231.693 250.815 231.75L250.909 231.802L282.843 250.238L284.943 249.023L251.948 229.976Z" fill="#455A64"/>
<path d="M279.879 248.52L282.845 250.234L284.944 249.019L280.929 246.698C280.456 247.226 280.098 247.846 279.879 248.52Z" fill="#37474F"/>
<path d="M287.369 250.512L284.943 247.823L284.879 247.752C284.609 247.482 284.174 247.46 283.679 247.752C283.244 248.032 282.881 248.411 282.62 248.858C282.36 249.305 282.209 249.807 282.179 250.324C282.179 250.872 282.401 251.228 282.746 251.344H282.768L282.866 251.366L286.443 252.154C286.573 252.17 286.706 252.141 286.818 252.071C287.014 251.942 287.178 251.769 287.295 251.565C287.412 251.361 287.48 251.133 287.492 250.898C287.504 250.758 287.459 250.619 287.369 250.512Z" fill="#0052CC"/>
<path opacity="0.1" d="M287.369 250.512L284.943 247.823L284.879 247.752C284.609 247.482 284.174 247.46 283.679 247.752C283.244 248.032 282.881 248.411 282.62 248.858C282.36 249.305 282.209 249.807 282.179 250.324C282.179 250.872 282.401 251.228 282.746 251.344H282.768L282.866 251.366L286.443 252.154C286.573 252.17 286.706 252.141 286.818 252.071C287.014 251.942 287.178 251.769 287.295 251.565C287.412 251.361 287.48 251.133 287.492 250.898C287.504 250.758 287.459 250.619 287.369 250.512Z" fill="black"/>
<path d="M287.502 250.898C287.489 251.132 287.422 251.361 287.305 251.565C287.187 251.769 287.024 251.942 286.827 252.071C286.716 252.142 286.583 252.17 286.452 252.15L284.652 251.756C284.368 251.696 284.18 251.43 284.18 251.006C284.2 250.631 284.308 250.266 284.496 249.94C284.683 249.614 284.945 249.337 285.26 249.132C285.383 249.033 285.536 248.98 285.693 248.98C285.85 248.98 286.003 249.033 286.126 249.132L286.175 249.184L287.382 250.511C287.427 250.564 287.461 250.626 287.481 250.692C287.502 250.759 287.509 250.829 287.502 250.898Z" fill="#0052CC"/>
<path opacity="0.1" d="M286.816 250.507C287.191 250.293 287.49 250.466 287.49 250.882C287.478 251.117 287.41 251.346 287.293 251.549C287.176 251.753 287.012 251.927 286.816 252.056C286.441 252.269 286.141 252.093 286.141 251.662C286.156 251.43 286.225 251.206 286.342 251.005C286.459 250.805 286.621 250.634 286.816 250.507Z" fill="black"/>
<path d="M244.009 225.383C243.924 225.344 243.83 225.328 243.737 225.337C243.644 225.346 243.555 225.38 243.48 225.435C243.263 225.576 243.082 225.765 242.951 225.989C242.821 226.212 242.745 226.463 242.73 226.722C242.72 226.814 242.734 226.907 242.773 226.992C242.811 227.076 242.871 227.149 242.948 227.201L250.821 231.738C250.76 231.682 250.712 231.612 250.681 231.534C250.651 231.456 250.639 231.372 250.645 231.288C250.66 231.029 250.735 230.777 250.865 230.552C250.996 230.327 251.177 230.136 251.395 229.995C251.465 229.945 251.546 229.913 251.63 229.901C251.715 229.888 251.801 229.896 251.883 229.924L244.009 225.383Z" fill="#FAFAFA"/>
<path d="M244.226 225.863C244.21 226.122 244.135 226.373 244.004 226.597C243.874 226.821 243.693 227.012 243.476 227.153C243.405 227.218 243.315 227.259 243.219 227.269C243.123 227.28 243.026 227.26 242.943 227.212C242.859 227.164 242.793 227.09 242.754 227.002C242.715 226.914 242.705 226.816 242.726 226.722C242.741 226.463 242.817 226.212 242.947 225.989C243.077 225.765 243.259 225.576 243.476 225.435C243.547 225.371 243.636 225.33 243.731 225.32C243.827 225.309 243.923 225.329 244.006 225.377C244.089 225.424 244.155 225.497 244.195 225.584C244.234 225.671 244.245 225.769 244.226 225.863Z" fill="#F5F5F5"/>
<path d="M242.574 222.702H242.548L242.518 222.683L239.417 220.895L239.342 220.854C239.132 220.772 238.904 220.744 238.681 220.772C238.457 220.8 238.243 220.884 238.06 221.015C237.512 221.375 237.057 221.859 236.731 222.427C236.405 222.996 236.218 223.634 236.185 224.288C236.16 224.524 236.199 224.763 236.297 224.979C236.395 225.195 236.549 225.382 236.744 225.518L239.882 227.329H239.901C240.114 227.418 240.346 227.452 240.576 227.426C240.806 227.401 241.025 227.317 241.213 227.183C241.761 226.822 242.215 226.337 242.541 225.768C242.867 225.198 243.054 224.561 243.088 223.906C243.111 223.678 243.076 223.448 242.986 223.238C242.896 223.027 242.755 222.843 242.574 222.702Z" fill="#0052CC"/>
<path opacity="0.05" d="M242.574 222.702H242.548L242.518 222.683L239.417 220.895L239.342 220.854C239.132 220.772 238.904 220.744 238.681 220.772C238.457 220.8 238.243 220.884 238.06 221.015C237.512 221.375 237.057 221.859 236.731 222.427C236.405 222.996 236.218 223.634 236.185 224.288C236.16 224.524 236.199 224.763 236.297 224.979C236.395 225.195 236.549 225.382 236.744 225.518L239.882 227.329H239.901C240.114 227.418 240.346 227.452 240.576 227.426C240.806 227.401 241.025 227.317 241.213 227.183C241.761 226.822 242.215 226.337 242.541 225.768C242.867 225.198 243.054 224.561 243.088 223.906C243.111 223.678 243.076 223.448 242.986 223.238C242.896 223.027 242.755 222.843 242.574 222.702Z" fill="black"/>
<path opacity="0.1" d="M241.192 222.789C242.234 222.185 243.066 222.676 243.066 223.88C243.033 224.535 242.845 225.172 242.52 225.742C242.194 226.311 241.739 226.796 241.192 227.157C240.146 227.76 239.298 227.269 239.298 226.066C239.334 225.409 239.524 224.77 239.853 224.201C240.182 223.631 240.641 223.147 241.192 222.789Z" fill="black"/>
<path d="M288.36 251.64L287.078 250.867C287.038 250.846 286.994 250.836 286.949 250.84C286.905 250.843 286.862 250.859 286.826 250.886C286.724 250.951 286.639 251.039 286.578 251.143C286.518 251.248 286.483 251.365 286.478 251.486C286.474 251.529 286.482 251.572 286.499 251.612C286.517 251.651 286.544 251.685 286.579 251.711L287.857 252.483C287.931 252.522 288.014 252.543 288.097 252.543C288.228 252.543 288.353 252.492 288.445 252.4C288.537 252.307 288.589 252.182 288.589 252.052C288.589 251.97 288.567 251.889 288.527 251.816C288.487 251.744 288.43 251.684 288.36 251.64Z" fill="#455A64"/>
<path d="M288.436 251.697L288.369 251.64C288.331 251.629 288.291 251.627 288.252 251.633C288.213 251.64 288.176 251.655 288.144 251.678C288.042 251.743 287.958 251.831 287.898 251.936C287.838 252.04 287.804 252.157 287.799 252.278C287.794 252.32 287.801 252.363 287.818 252.401C287.835 252.44 287.862 252.474 287.896 252.499H287.923H287.949C287.999 252.519 288.052 252.528 288.106 252.525C288.237 252.525 288.361 252.474 288.454 252.381C288.546 252.289 288.597 252.164 288.597 252.034C288.589 251.905 288.532 251.784 288.436 251.697Z" fill="#263238"/>
<path d="M338.947 268.064L341.533 266.582C341.963 266.303 342.321 265.926 342.579 265.482C342.836 265.038 342.985 264.539 343.014 264.027V72.4865C342.986 71.9739 342.837 71.4753 342.58 71.0312C342.322 70.5871 341.963 70.2101 341.533 69.9309L222.713 1.32837C222.255 1.09367 221.747 0.971283 221.232 0.971283C220.717 0.971283 220.209 1.09367 219.75 1.32837L217.165 2.8099C216.735 3.08956 216.376 3.46668 216.119 3.9107C215.862 4.35471 215.712 4.85313 215.684 5.36555V196.906C215.711 197.419 215.86 197.917 216.117 198.362C216.375 198.806 216.734 199.183 217.165 199.462L335.999 268.064C336.455 268.297 336.961 268.419 337.473 268.419C337.986 268.419 338.491 268.297 338.947 268.064Z" fill="#0052CC"/>
<path opacity="0.4" d="M215.737 5.1351C215.833 4.39433 216.477 4.09061 217.218 4.52026L336 73.1227C336.434 73.3964 336.792 73.773 337.045 74.2191L342.586 71.0264C342.333 70.5803 341.975 70.2037 341.541 69.93L222.715 1.32755C222.256 1.09168 221.748 0.968628 221.233 0.968628C220.718 0.968628 220.21 1.09168 219.752 1.32755L217.159 2.80909C216.769 3.0722 216.44 3.41608 216.195 3.8174C215.949 4.21872 215.793 4.6681 215.737 5.1351Z" fill="#0046AD"/>
<path opacity="0.15" d="M336.259 268.181C336.289 268.187 336.319 268.187 336.348 268.181L336.496 268.233H336.555C336.644 268.233 336.733 268.278 336.83 268.3C337.417 268.411 338.023 268.362 338.585 268.159C338.697 268.117 338.806 268.067 338.911 268.011L341.504 266.529C341.933 266.248 342.29 265.871 342.548 265.427C342.805 264.983 342.955 264.486 342.985 263.974V72.4852C342.968 71.9632 342.821 71.4537 342.556 71.0037L337.015 74.1964C337.289 74.6429 337.44 75.1541 337.452 75.6779V267.218C337.468 267.496 337.387 267.771 337.222 267.996C337.131 268.111 337.008 268.196 336.868 268.241C336.728 268.286 336.578 268.288 336.437 268.248C336.376 268.232 336.316 268.209 336.259 268.181Z" fill="black"/>
<path d="M252.82 36.5955L253.035 36.4622L255.487 35.0547C256.378 34.5576 257.348 34.2145 258.354 34.0399C258.776 33.9436 259.154 33.8325 259.487 33.7214C259.857 33.6003 260.218 33.4543 260.568 33.2843L260.391 33.0547L263.146 31.4472C263.379 31.3175 263.628 31.2203 263.887 31.1583C264.932 30.899 266.495 31.5065 268.05 31.3287C268.616 31.2734 269.163 31.094 269.652 30.8034C270.142 30.5128 270.561 30.118 270.88 29.6471C271.828 28.373 272.398 26.1433 273.236 24.2914L272.495 23.2173C272.569 23.1709 272.645 23.1289 272.724 23.0913L275.265 21.6098C275.694 21.3573 276.183 21.2243 276.68 21.2246C277.63 21.2747 278.549 21.5736 279.347 22.0913C285.429 25.61 285.636 33.9436 287.829 39.4401C290.021 44.9366 293.125 46.6478 294.814 49.0108C296.503 51.3739 296.622 53.1221 300.362 58.2778C304.103 63.4336 304.251 64.6929 304.251 65.6855V73.3672L301.481 74.9673L251.687 46.2033L252.82 36.5955ZM298.481 66.2262C299.125 66.5892 299.659 66.0929 299.659 65.0929C299.665 64.6146 299.562 64.1413 299.358 63.7087C299.154 63.2762 298.854 62.8958 298.481 62.5965C297.836 62.2261 297.31 62.7372 297.31 63.7373C297.305 64.2114 297.408 64.6806 297.61 65.1093C297.813 65.5379 298.111 65.9148 298.481 66.2114V66.2262ZM276.606 44.6625C276.92 44.8915 277.283 45.0442 277.666 45.1087C278.049 45.1732 278.442 45.1477 278.813 45.0342C279.185 44.9206 279.525 44.7222 279.806 44.4545C280.088 44.1869 280.304 43.8574 280.436 43.4921C282.369 43.8625 283.806 42.0106 283.806 38.7956C283.806 35.0177 281.814 30.8176 279.362 29.3953C279.047 29.1665 278.684 29.014 278.301 28.95C277.917 28.886 277.524 28.9122 277.152 29.0265C276.781 29.1407 276.441 29.34 276.159 29.6085C275.878 29.8769 275.663 30.2072 275.532 30.5731C273.598 30.1879 272.169 32.0546 272.169 35.2622C272.169 39.0253 274.147 43.2254 276.606 44.6477V44.6625ZM260.065 44.0403C260.717 44.418 261.242 43.9143 261.242 42.9143C261.254 42.4352 261.154 41.9599 260.95 41.5265C260.745 41.093 260.442 40.7134 260.065 40.4179C259.413 40.0401 258.887 40.5438 258.887 41.5439C258.878 42.0204 258.98 42.4926 259.184 42.9232C259.388 43.3537 259.69 43.7311 260.065 44.0254V44.0403Z" fill="#455A64"/>
<path opacity="0.5" d="M298.702 67.5817L304.057 64.4927C304.179 64.8784 304.239 65.2809 304.235 65.6854V73.3671L301.465 74.9672L298.702 73.3671V67.5817Z" fill="#37474F"/>
<path opacity="0.5" d="M293.197 57.9966L290.427 51.6038L294.827 49.0259C296.116 50.8112 296.494 52.2557 298.227 55.0928L293.197 57.9966Z" fill="#37474F"/>
<path opacity="0.5" d="M282.126 45.2182L281.77 43.3515C282.993 42.8403 283.808 41.1884 283.808 38.7809C283.808 35.5734 282.37 32.0696 280.437 30.2102L284.274 27.9879C285.904 31.6918 286.497 36.1364 287.845 39.4476C288.126 40.1884 288.43 40.8032 288.734 41.3958L282.126 45.2182Z" fill="#37474F"/>
<path d="M252.821 36.5956L253.036 36.4622C253.851 36.0838 254.709 35.8052 255.591 35.6326C257.039 35.3781 258.388 34.7268 259.488 33.751C259.766 33.4994 260.069 33.2761 260.391 33.0843C260.621 32.9477 260.871 32.8477 261.132 32.788C262.806 32.3806 265.858 34.2103 268.051 31.3657C268.077 31.3394 268.1 31.3094 268.118 31.2768C269.651 29.2175 270.214 24.6099 272.51 23.2543C272.584 23.208 272.661 23.1659 272.74 23.1284C273.688 22.6839 274.918 22.7654 276.607 23.7284C282.688 27.2471 282.896 35.5807 285.089 41.0772C287.281 46.5737 290.378 48.2849 292.067 50.6479C293.756 53.011 293.867 54.7592 297.615 59.9149C301.363 65.0707 301.497 66.3374 301.497 67.3226V75.0118L251.702 46.2478V38.529C251.665 38.1304 251.752 37.7301 251.953 37.3835C252.153 37.037 252.456 36.7616 252.821 36.5956ZM295.741 67.8263C296.393 68.2041 296.919 67.7004 296.919 66.6929C296.928 66.2153 296.826 65.7421 296.622 65.3103C296.417 64.8785 296.116 64.4999 295.741 64.204C295.089 63.8262 294.57 64.3373 294.57 65.3373C294.561 65.8143 294.661 66.2872 294.864 66.7189C295.067 67.1507 295.367 67.5297 295.741 67.8263ZM276.629 44.6699C276.943 44.8989 277.306 45.0516 277.689 45.1162C278.072 45.1807 278.465 45.1551 278.836 45.0416C279.208 44.928 279.548 44.7296 279.829 44.4619C280.111 44.1943 280.327 43.8648 280.459 43.4995C280.894 42.5242 281.101 41.4629 281.066 40.3957C281.066 36.6252 279.081 32.4176 276.622 31.0028C276.289 30.8037 275.926 30.6611 275.547 30.5805C273.614 30.1953 272.184 32.0621 272.184 35.2696C272.17 39.0253 274.147 43.2254 276.607 44.6477L276.629 44.6699ZM257.302 45.6033C257.954 45.9811 258.48 45.4774 258.48 44.4847C258.491 44.0069 258.39 43.5331 258.186 43.101C257.981 42.6689 257.679 42.2905 257.302 41.9958C256.658 41.618 256.132 42.1217 256.132 43.1217C256.123 43.5976 256.224 44.0691 256.427 44.4996C256.63 44.93 256.929 45.3078 257.302 45.6033Z" fill="#37474F"/>
<path d="M272.167 35.2323C272.167 39.0102 274.144 43.2103 276.611 44.6326C276.925 44.8616 277.288 45.0143 277.671 45.0788C278.054 45.1433 278.447 45.1178 278.818 45.0043C279.19 44.8907 279.53 44.6923 279.812 44.4246C280.093 44.157 280.309 43.8275 280.441 43.4622C280.063 43.3785 279.701 43.236 279.367 43.04C276.915 41.6177 274.922 37.4175 274.922 33.6396C274.89 32.575 275.098 31.5168 275.53 30.5432C273.596 30.1728 272.167 32.0322 272.167 35.2323Z" fill="#263238"/>
<path d="M295.739 67.8263C296.391 68.1967 296.916 67.693 296.916 66.7004C296.925 66.2217 296.824 65.7474 296.62 65.3144C296.415 64.8814 296.114 64.5014 295.739 64.204C295.094 63.8262 294.568 64.3447 294.568 65.3374C294.56 65.8141 294.661 66.2864 294.864 66.7179C295.067 67.1493 295.366 67.5286 295.739 67.8263Z" fill="#263238"/>
<path d="M257.307 45.6024C257.959 45.9728 258.485 45.4765 258.485 44.4764C258.494 43.9978 258.392 43.5235 258.188 43.0905C257.984 42.6575 257.682 42.2775 257.307 41.98C256.663 41.6097 256.137 42.1208 256.137 43.1208C256.129 43.5964 256.231 44.0674 256.433 44.4976C256.636 44.9278 256.935 45.3057 257.307 45.6024Z" fill="#263238"/>
<path d="M328.294 91.0416L224.898 31.3432C224.623 31.2045 224.32 31.1322 224.012 31.1322C223.705 31.1322 223.402 31.2045 223.127 31.3432L222.127 31.921C221.87 32.0893 221.656 32.3159 221.503 32.5823C221.35 32.8487 221.262 33.1475 221.246 33.4543V191.193C221.261 191.501 221.348 191.8 221.502 192.066C221.655 192.333 221.869 192.559 222.127 192.727L325.523 252.425C325.798 252.564 326.101 252.636 326.409 252.636C326.716 252.636 327.019 252.564 327.294 252.425L328.294 251.847C328.553 251.68 328.768 251.454 328.923 251.188C329.077 250.921 329.166 250.622 329.183 250.314V92.575C329.165 92.2676 329.076 91.9687 328.921 91.7023C328.767 91.4359 328.552 91.2096 328.294 91.0416Z" fill="#F5F5F5"/>
<path d="M221.271 33.1877C221.382 32.8247 221.723 32.7062 222.123 32.9432L325.519 92.6417C325.786 92.7996 326.003 93.0276 326.149 93.301L328.919 91.7083C328.77 91.436 328.553 91.2065 328.29 91.0416L224.893 31.3432C224.619 31.2045 224.316 31.1322 224.008 31.1322C223.701 31.1322 223.397 31.2045 223.123 31.3432L222.123 31.921C221.904 32.0645 221.715 32.2506 221.569 32.4681C221.423 32.6857 221.321 32.9303 221.271 33.1877Z" fill="#FAFAFA"/>
<path d="M325.732 252.522C325.838 252.561 325.947 252.59 326.057 252.611H326.228C326.408 252.63 326.589 252.63 326.769 252.611C326.879 252.59 326.988 252.56 327.095 252.522L327.295 252.426L328.287 251.856C328.544 251.687 328.757 251.46 328.91 251.194C329.064 250.928 329.152 250.629 329.169 250.322V92.5759C329.163 92.2697 329.077 91.9705 328.917 91.7092L326.146 93.3018C326.304 93.5672 326.393 93.8676 326.406 94.176V251.915C326.406 252.396 326.109 252.634 325.732 252.522Z" fill="#E0E0E0"/>
<path d="M244.533 53.6847L247.289 52.0921C247.721 51.8801 248.199 51.7767 248.681 51.7909C249.162 51.8051 249.633 51.9364 250.052 52.1736C253.267 53.5884 254.66 54.2329 256.319 54.9292L257.519 55.4107C258.171 55.67 259.467 55.4478 259.067 53.1884L254.793 41.6843H254.86L257.563 40.1213C257.701 40.0351 257.855 39.9795 258.015 39.9583C258.097 39.9583 258.2 39.9583 258.312 39.9583C260.06 39.9139 260.534 28.632 260.571 28.2838L260.697 28.2171L263.371 26.6764C263.836 26.4127 264.363 26.2796 264.897 26.2912C265.791 26.3324 266.662 26.5863 267.438 27.0319C271.638 29.2542 275.883 35.7804 276.92 41.6547C277.572 45.3585 281.298 51.0624 283.453 53.1662C285.609 55.27 285.757 57.0182 285.757 57.0182L287.431 66.5148L287.972 69.5594C288.365 71.8261 290.691 74.004 290.691 74.004L299.365 80.419C304.795 84.9229 306.328 89.4786 307.365 95.1085V95.1529C307.365 95.3529 307.365 95.4863 307.269 95.5381C307.255 95.5474 307.238 95.5523 307.221 95.5523C307.204 95.5523 307.187 95.5474 307.173 95.5381L306.061 94.9084L246.385 60.4924C246.245 60.3966 246.125 60.274 246.032 60.1316C245.939 59.9892 245.875 59.8298 245.844 59.6627C245.504 57.6108 244.511 53.7366 244.511 53.7366L244.533 53.6847ZM261.786 36.2545C262.43 39.862 265.03 43.8918 267.616 45.2474C269.401 46.1808 270.705 45.603 271.142 43.9585C271.463 44.0841 271.81 44.1268 272.152 44.0828C272.494 44.0388 272.819 43.9094 273.097 43.7066C273.927 43.0547 266.327 30.0024 265.69 30.2913C265.393 30.4474 265.136 30.6683 264.938 30.9377C264.739 31.2071 264.603 31.5179 264.541 31.8469C262.408 31.2024 261.215 33.0099 261.786 36.2545Z" fill="#455A64"/>
<path opacity="0.5" d="M298.703 86.76L303.052 84.2487C305.57 87.5674 306.585 91.0564 307.333 95.1084V95.1528C307.333 95.3529 307.333 95.4862 307.237 95.5381C307.223 95.5473 307.206 95.5522 307.189 95.5522C307.172 95.5522 307.155 95.5473 307.141 95.5381L303.711 92.8268L298.703 86.76Z" fill="#37474F"/>
<path opacity="0.5" d="M288.262 70.4402L282.128 73.9737L279.365 57.9953L284.891 54.8026C285.331 55.4344 285.627 56.1551 285.758 56.9138L287.432 66.4104L287.973 69.455C288.034 69.7927 288.131 70.123 288.262 70.4402Z" fill="#37474F"/>
<path opacity="0.5" d="M274.016 33.9216C275.414 36.2799 276.396 38.8607 276.92 41.5515C277.36 43.4586 278.09 45.2872 279.083 46.9739L273.831 50.011L271.216 43.9738C271.528 44.0862 271.862 44.1207 272.19 44.0742C272.518 44.0278 272.83 43.9017 273.098 43.7071C273.527 43.3664 271.72 39.7588 269.786 36.3661L274.016 33.9216Z" fill="#37474F"/>
<path d="M244.49 53.7074H244.527C244.961 53.5026 245.437 53.4038 245.916 53.4193C246.395 53.4347 246.864 53.564 247.283 53.7963C251.224 55.5371 252.416 56.1075 254.757 57.0334C255.38 57.2853 256.646 57.0853 256.313 54.9519C256.317 54.9025 256.317 54.853 256.313 54.8037L255.772 51.7666L254.291 43.4922C254.291 43.4922 253.95 42.1884 254.809 41.6995H254.876C255.092 41.5998 255.327 41.5492 255.565 41.5514C256.068 41.4908 256.551 41.3175 256.978 41.0443C257.405 40.7711 257.765 40.4051 258.031 39.9735C258.493 39.2859 258.813 38.513 258.972 37.7001C259.131 36.8873 259.126 36.0509 258.957 35.24C258.328 31.6918 259.017 29.2028 260.587 28.2768L260.713 28.2027C261.728 27.662 263.091 27.7509 264.684 28.5879C268.891 30.8102 273.136 37.3364 274.165 43.2107C274.825 46.9145 278.551 52.6258 280.706 54.7222C282.862 56.8186 283.003 58.5742 283.003 58.5742L284.625 68.019L285.158 71.0561C285.558 73.3229 287.884 75.5008 287.884 75.5008L296.551 82.0047C300.01 84.7579 302.508 88.5364 303.685 92.7977C303.685 92.7977 306.937 95.3237 307.137 95.5237L306.026 94.894L246.179 60.4928C246.179 60.4928 245.498 60.115 245.342 60.0187C245.187 59.9224 242.779 57.6483 242.779 57.6483C242.912 55.7074 243.49 54.3074 244.49 53.7074ZM261.78 36.2549C262.424 39.8624 265.024 43.8922 267.61 45.2478C269.395 46.1812 270.699 45.6034 271.136 43.9589C271.331 43.0357 271.331 42.0819 271.136 41.1588C270.491 37.5438 267.884 33.5215 265.298 32.1733C265.061 32.0433 264.814 31.9342 264.558 31.8473C262.402 31.2028 261.209 33.0103 261.78 36.2549Z" fill="#37474F"/>
<path d="M261.783 36.2536C262.427 39.8612 265.027 43.8909 267.612 45.2465C269.398 46.1799 270.701 45.6021 271.138 43.9576C270.884 43.8735 270.636 43.7695 270.398 43.6465C267.805 42.2909 265.212 38.2611 264.568 34.6462C264.373 33.7229 264.373 32.7693 264.568 31.8461C262.405 31.2016 261.212 33.0091 261.783 36.2536Z" fill="#263238"/>
<path d="M264.279 32.0018C264.037 31.9872 263.795 32.0355 263.577 32.1419C263.359 32.2483 263.172 32.4093 263.035 32.6093C261.961 34.1353 262.99 38.0169 263.435 39.2762C264.05 41.0022 268.065 45.0616 269.168 45.0616C269.534 45.0013 269.884 44.867 270.196 44.6671C270.508 44.4671 270.776 44.2056 270.983 43.8986C271.165 43.009 271.165 42.0917 270.983 41.2022C270.354 37.6317 267.776 33.6612 265.235 32.313C265.009 32.1936 264.773 32.092 264.531 32.0093H264.287L264.279 32.0018ZM264.287 31.8389H264.561C264.817 31.9258 265.065 32.0349 265.302 32.1648C267.887 33.513 270.487 37.5354 271.139 41.1503C271.334 42.0735 271.334 43.0273 271.139 43.9504C270.916 44.284 270.626 44.568 270.289 44.7847C269.951 45.0014 269.572 45.1461 269.176 45.2097C267.976 45.2097 263.939 41.1133 263.294 39.2836C262.65 37.4539 261.25 31.7944 264.302 31.7944L264.287 31.8389Z" fill="#263238"/>
<path d="M307.166 95.5464L246.216 60.5081L245.371 60.0414C245.223 59.9525 242.816 57.6635 242.816 57.6635L303.722 92.8203C303.722 92.8203 307.411 95.6797 307.166 95.5464Z" fill="#263238"/>
<path d="M315.342 120.118V121.503C315.342 122.244 314.808 122.562 314.156 122.184L233.516 75.6197C233.173 75.3955 232.886 75.0937 232.68 74.7386C232.475 74.3834 232.355 73.985 232.331 73.5752V72.1826C232.331 71.4418 232.864 71.1233 233.516 71.5011L314.156 118.073C314.501 118.297 314.787 118.599 314.993 118.954C315.199 119.309 315.318 119.708 315.342 120.118Z" fill="#E0E0E0"/>
<path d="M315.342 128.494V129.879C315.342 130.62 314.808 130.939 314.156 130.561L233.516 83.9889C233.172 83.7651 232.886 83.4634 232.68 83.1082C232.474 82.753 232.354 82.3543 232.331 81.9444V80.5517C232.331 79.811 232.864 79.4998 233.516 79.8702L314.156 126.45C314.501 126.674 314.787 126.975 314.993 127.33C315.199 127.686 315.318 128.084 315.342 128.494Z" fill="#E0E0E0"/>
<path d="M315.342 136.821V138.199C315.342 138.939 314.808 139.258 314.156 138.88L233.516 92.323C233.173 92.0987 232.886 91.7969 232.68 91.4418C232.475 91.0867 232.355 90.6882 232.331 90.2785V88.8858C232.331 88.145 232.864 87.8265 233.516 88.2043L314.156 134.776C314.501 135 314.787 135.302 314.993 135.657C315.199 136.012 315.318 136.411 315.342 136.821Z" fill="#E0E0E0"/>
<path d="M315.342 155.273V156.659C315.342 157.399 314.808 157.718 314.156 157.34L233.516 110.79C233.172 110.566 232.886 110.265 232.68 109.91C232.474 109.554 232.354 109.156 232.331 108.746V107.353C232.331 106.612 232.864 106.301 233.516 106.672L314.156 153.229C314.501 153.453 314.787 153.754 314.993 154.11C315.199 154.465 315.318 154.863 315.342 155.273Z" fill="#E0E0E0"/>
<path d="M315.342 163.644V165.037C315.342 165.778 314.808 166.089 314.156 165.719L233.516 119.146C233.172 118.923 232.886 118.621 232.68 118.266C232.474 117.911 232.354 117.512 232.331 117.102V115.709C232.331 114.969 232.864 114.65 233.516 115.028L314.156 161.6C314.5 161.824 314.786 162.126 314.992 162.481C315.198 162.836 315.318 163.235 315.342 163.644Z" fill="#E0E0E0"/>
<path d="M315.342 171.978V173.363C315.342 174.104 314.808 174.423 314.156 174.045L233.516 127.473C233.172 127.249 232.886 126.947 232.68 126.592C232.474 126.237 232.354 125.838 232.331 125.428V124.036C232.331 123.295 232.864 122.984 233.516 123.354L314.156 169.934C314.501 170.157 314.787 170.459 314.993 170.814C315.199 171.169 315.318 171.568 315.342 171.978Z" fill="#E0E0E0"/>
<path d="M315.342 190.424V191.816C315.342 192.557 314.808 192.868 314.156 192.498L233.516 145.926C233.172 145.702 232.886 145.4 232.68 145.045C232.474 144.69 232.354 144.291 232.331 143.881V142.489C232.331 141.748 232.864 141.429 233.516 141.807L314.156 188.379C314.5 188.603 314.786 188.905 314.992 189.26C315.198 189.615 315.318 190.014 315.342 190.424Z" fill="#E0E0E0"/>
<path d="M315.342 198.802V200.187C315.342 200.928 314.808 201.246 314.156 200.869L233.516 154.296C233.172 154.074 232.886 153.774 232.68 153.42C232.474 153.066 232.354 152.668 232.331 152.259V150.867C232.331 150.126 232.864 149.807 233.516 150.185L314.156 196.757C314.501 196.981 314.787 197.283 314.993 197.638C315.199 197.993 315.318 198.392 315.342 198.802Z" fill="#E0E0E0"/>
<path d="M315.342 207.127V208.52C315.342 209.261 314.808 209.572 314.156 209.201L233.516 162.644C233.172 162.42 232.886 162.118 232.68 161.763C232.474 161.408 232.354 161.009 232.331 160.6V159.207C232.331 158.466 232.864 158.148 233.516 158.525L314.156 205.083C314.5 205.307 314.786 205.609 314.992 205.964C315.198 206.319 315.318 206.717 315.342 207.127Z" fill="#E0E0E0"/>
<path d="M273.826 208.245L232.306 184.282V185.082L273.826 209.045V208.245Z" fill="#E0E0E0"/>
<path d="M241.893 182.942C243.757 183.859 246.407 184.553 248.247 183.132C249.367 182.271 249.264 181.013 248.19 180.145C246.087 178.442 241.999 178.963 239.57 179.348C237.461 179.71 233.675 180.724 234.625 183.657C235.75 187.088 241.607 186.862 244.343 186.207C244.725 186.114 244.597 185.478 244.213 185.494C243.525 185.532 238.969 185.759 240.556 187.486C241.118 188.103 242.448 187.874 243.154 187.808C244.414 187.679 245.936 187.1 247.203 187.31L247.14 186.653C246.235 187.218 245.588 187.549 245.24 188.606C245.201 188.693 245.199 188.792 245.233 188.881C245.266 188.971 245.334 189.043 245.421 189.083C246.949 189.552 248.523 188.737 250.021 189.361L249.976 188.779C249.681 188.95 248.763 189.3 248.36 189.507C248.174 189.614 248.197 189.935 248.34 190.049C248.454 190.177 248.598 190.273 248.759 190.33C248.921 190.386 249.094 190.401 249.262 190.372L249.16 189.781C247.14 191.512 250.519 192.135 251.761 192.3C255.438 192.743 258.983 192.527 262.297 190.682C262.56 190.53 262.409 189.958 262.091 190.133C259.538 191.547 256.585 191.781 253.787 192.447C250.78 193.165 247.79 194.045 244.843 195.045L244.939 195.596C246.893 194.661 248.998 194.083 251.156 193.889C252.959 193.511 254.824 193.542 256.614 193.98L256.53 193.464C255.935 193.956 255.239 194.313 254.492 194.508C253.745 194.703 252.963 194.732 252.204 194.593C251.953 194.558 251.8 195.049 252.05 195.083C253.343 195.278 254.296 196.276 255.593 196.537C256.969 196.691 258.356 196.734 259.739 196.666L259.712 196.22C257.531 197.419 262.066 197.512 262.585 197.581L262.521 197.173C262.156 197.563 261.964 197.913 262.247 198.417C262.821 199.412 264.486 198.947 265.086 199.601C265.086 199.601 264.999 200.087 265.053 200.21C265.231 200.659 265.553 201.036 265.97 201.28C266.997 201.806 268.146 202.047 269.297 201.977C269.569 201.974 269.6 201.434 269.301 201.435C268.182 201.423 265.08 201.161 265.519 199.419C265.543 199.311 265.522 199.127 265.388 199.102C264.841 199.015 261.869 198.43 262.749 197.494C262.855 197.382 262.889 197.114 262.688 197.093C262.19 197.03 261.683 197.041 261.177 197.008C260.9 196.988 259.203 196.967 259.859 196.622C260.013 196.534 260.056 196.192 259.832 196.176C258.357 196.095 256.656 196.393 255.22 195.922C254.16 195.567 253.368 194.759 252.229 194.578L252.076 195.068C252.902 195.238 253.755 195.221 254.574 195.019C255.393 194.817 256.156 194.435 256.808 193.902C256.847 193.867 256.876 193.823 256.893 193.774C256.911 193.725 256.915 193.672 256.907 193.621C256.899 193.569 256.877 193.521 256.846 193.48C256.814 193.439 256.772 193.406 256.724 193.386C254.928 192.823 252.987 193.046 251.154 193.308C248.954 193.511 246.808 194.102 244.814 195.053C244.615 195.168 244.624 195.702 244.91 195.605C248.075 194.5 251.301 193.578 254.571 192.841C257.211 192.258 259.912 191.973 262.311 190.647L262.106 190.099C259.621 191.471 256.785 192.075 253.956 191.836C253.191 191.799 252.414 191.743 251.651 191.636C251.31 191.593 248.313 191.202 249.4 190.301C249.555 190.169 249.603 189.688 249.299 189.709L248.621 189.485L248.607 190.023C249.145 189.755 249.692 189.576 250.233 189.298C250.432 189.183 250.382 188.801 250.182 188.721C248.66 188.085 247.079 188.887 245.547 188.411L245.728 188.888C246.108 188.207 246.679 187.651 247.371 187.29C247.596 187.16 247.614 186.688 247.309 186.633C245.92 186.391 244.285 187.01 242.898 187.127C242.138 187.189 239.969 187.107 241.848 186.45C242.673 186.257 243.519 186.174 244.365 186.202L244.236 185.49C241.848 186.065 237.826 186.24 235.914 184.41C233.452 182.085 237.217 180.561 239.066 180.178C241.227 179.744 243.445 179.672 245.63 179.963C246.055 180.003 246.475 180.084 246.883 180.207C247.726 180.481 247.95 180.574 247.954 181.633C247.958 182.691 247.73 182.874 246.759 183.178C246.265 183.307 245.754 183.365 245.243 183.352C244.175 183.291 243.125 183.047 242.14 182.629C241.997 182.574 241.806 182.881 241.957 182.948L241.893 182.942Z" fill="#455A64"/>
<path d="M195.915 221.723C197.513 221.343 199.274 222.482 200.302 224.988C201.33 227.495 203.391 233.902 203.832 235.579C204.026 236.329 198.325 242.974 198.537 242.877C198.598 242.846 196.679 239.634 196.679 239.634L199.446 235.376L197.681 230.756L195.915 221.723Z" fill="#B16668"/>
<path d="M199.612 281.206C199.828 281.29 199.886 281.7 199.917 282.53C199.943 283.152 200.076 284.233 199.348 284.449C198.619 284.665 197.556 284.555 197.088 283.973C196.525 283.188 195.923 282.433 195.283 281.709C194.564 280.932 193.788 280.213 193.496 279.127C193.232 278.148 193.452 277.724 194.118 277.437C195.041 277.049 196.484 278.32 197.207 278.527C197.821 278.695 199.396 281.126 199.612 281.206Z" fill="#263238"/>
<path d="M199.613 280.447V281.453C199.235 281.695 198.798 281.829 198.349 281.842C197.901 281.854 197.457 281.744 197.066 281.524C197.022 281.427 196.802 280.081 196.802 280.081L199.613 280.447Z" fill="#B16668"/>
<path d="M192.121 286.558C192.295 287.098 192.443 287.646 192.562 288.2C192.69 288.809 192.866 289.828 192.65 290.283C192.434 290.737 191.609 291.037 190.316 291.028C189.482 291.028 188.18 291.589 187.289 292.087C186.393 292.527 185.38 292.667 184.399 292.489C183.251 292.352 182.06 291.686 181.874 291.214C181.689 290.741 181.927 290.508 184.632 289.356C184.659 289.356 187.483 288.067 188.794 286.624L192.121 286.558Z" fill="#263238"/>
<path d="M192.122 285.469C192.122 285.469 192.122 286.214 192.122 286.642C192.122 287.07 191.619 287.706 190.313 287.662C189.395 287.626 188.755 287.379 188.795 286.625V285.539L192.122 285.469Z" fill="#B16668"/>
<path d="M200.607 266.485C200.39 264.718 199.977 262.98 199.375 261.305C199.375 261.305 199.945 256.848 200.258 252.567C200.845 244.894 200.373 242.387 198.864 238.945C198.864 238.945 185.992 237.622 185.599 242.992C185.109 249.655 185.758 262.531 185.934 264.883C186.111 267.235 186.332 268.299 187.161 273.214C187.797 276.956 188.776 285.539 188.776 285.539C189.294 285.802 189.868 285.933 190.449 285.92C191.029 285.908 191.597 285.753 192.103 285.468C192.103 285.468 193.154 274.754 193.043 272.041C192.966 270.033 192.626 268.043 192.033 266.123C192.033 266.123 192.831 255.264 193.061 253.534C193.061 253.534 193.467 256.98 193.643 259.332C193.82 261.684 194.526 263.934 195.197 268.307C195.788 272.098 196.887 280.575 196.887 280.575C198.594 281.501 199.614 280.456 199.614 280.456C199.614 280.456 201.066 269.772 200.607 266.485Z" fill="#0052CC"/>
<path d="M189.337 219.989L189.942 224.962L194.315 224.569L193.816 219.049L189.337 219.989Z" fill="#B16668"/>
<path d="M199.115 224.203C198.634 222.879 196.997 221.436 195.316 221.75L194.081 221.975C194.045 223.122 191.874 223.713 189.73 223.02C189.085 223.206 188.49 223.395 187.965 223.585C186.425 224.137 185.807 226.674 185.758 230.972C185.71 235.27 185.268 245.918 185.268 245.918L187.091 246.496L187.929 243.376L188.269 247.114C190.315 247.591 192.445 247.58 194.487 247.083C199.111 246.072 200.55 243.579 200.55 243.579C199.984 240.693 198.86 237.945 197.24 235.491C199.552 229.326 199.826 226.158 199.115 224.203Z" fill="#EBEBEB"/>
<path d="M186.085 213.67C185.823 213.076 185.716 212.425 185.774 211.778C185.832 211.132 186.053 210.51 186.416 209.972C187.885 207.668 190.714 207.276 194.068 208.176C195.238 208.534 196.269 209.246 197.02 210.212C197.772 211.179 198.206 212.354 198.264 213.577C198.427 216.035 191.566 217.849 191.724 219.534L186.085 213.67Z" fill="#263238"/>
<path d="M185.937 214.605C185.937 214.605 185.006 216.097 185.139 216.251C185.369 216.394 185.623 216.496 185.889 216.551L185.937 214.605Z" fill="#9A4A4D"/>
<path d="M188.776 209.879C187.849 210.391 186.243 211.336 185.916 214.822C185.581 218.396 186.411 219.614 186.909 220.068C187.245 220.377 188.943 220.443 189.817 220.148C190.911 219.773 193.277 218.528 194.349 216.657C195.611 214.451 195.805 211.561 194.252 210.48C193.465 209.924 192.549 209.577 191.591 209.472C190.633 209.367 189.665 209.507 188.776 209.879Z" fill="#B16668"/>
<path d="M188.502 210.034C188.502 210.034 187.769 213.308 188.81 215.329C188.81 215.329 189.349 214.045 190.452 214.38C191.555 214.715 191.498 216.185 190.655 216.957C190.44 217.178 190.166 217.333 189.866 217.405C189.567 217.477 189.252 217.462 188.96 217.363C189.332 218.29 189.889 219.131 190.598 219.834C190.598 219.834 193.859 221.286 196.678 218.1C199.242 215.21 198.765 210.157 194.843 208.979C190.92 207.801 188.502 210.034 188.502 210.034Z" fill="#263238"/>
<path d="M197.799 210.374C197.645 210.506 197.55 210.694 197.534 210.897C197.518 211.099 197.583 211.3 197.715 211.455L198.88 210.453C198.815 210.376 198.735 210.314 198.645 210.268C198.555 210.223 198.457 210.195 198.356 210.188C198.256 210.181 198.155 210.193 198.059 210.225C197.964 210.257 197.875 210.307 197.799 210.374Z" fill="#263238"/>
<path d="M176.884 231.479C176.249 230.756 176.001 229.141 175.163 228.037C174.325 226.934 174.007 226.127 173.672 226.608C173.23 227.248 174.228 228.523 174.007 228.651C173.786 228.779 172.957 230.46 172.873 231.395C172.789 232.331 175.265 234.678 175.265 234.678L176.884 231.479Z" fill="#B16668"/>
<path d="M174.076 228.506C174.076 228.506 171.084 228.25 170.648 228.506C170.211 228.761 170.343 230.059 170.648 230.853C170.952 231.647 172.479 232.177 173.895 233.121C173.895 232.98 174.076 228.506 174.076 228.506Z" fill="#B16668"/>
<path d="M188.335 223.466C187.05 223.907 185.925 224.432 184.725 226.687C183.185 229.586 180.378 235.261 180.378 235.261L176.884 231.479C176.884 231.479 176.376 230.764 175.432 232.326C174.488 233.888 174.902 234.321 174.902 234.321C174.902 234.321 178.966 239.766 179.712 240.459C180.458 241.152 181.685 240.613 182.488 239.523C183.291 238.433 188.335 232.119 188.335 232.119C188.335 232.119 191.092 228.492 188.335 223.466Z" fill="#B16668"/>
<path opacity="0.2" d="M193.06 253.525L193.307 250.926C194.707 250.718 196.047 250.211 197.234 249.439C197.234 249.439 196.396 250.763 194.101 251.389L193.863 254.699L193.722 260.127L193.06 253.525Z" fill="black"/>
<path d="M202.226 222.778C201.63 222.779 201.04 222.663 200.489 222.437C199.937 222.21 199.437 221.877 199.014 221.456C198.592 221.036 198.257 220.536 198.028 219.986C197.799 219.436 197.681 218.846 197.681 218.25V211.371C198.2 211.202 198.752 211.159 199.291 211.245C199.83 211.33 200.342 211.542 200.783 211.863C201.225 212.184 201.584 212.605 201.832 213.092C202.079 213.578 202.208 214.117 202.208 214.663L202.226 222.778Z" fill="#263238"/>
<path d="M185.661 235.477C185.661 235.477 188.172 232.238 188.975 230.936L185.573 238.12L185.661 235.477Z" fill="#E0E0E0"/>
<path d="M163.646 208.877C164.599 211.688 166.634 220.072 166.634 220.072C166.634 220.072 170.512 225.231 171.58 226.215C172.172 226.762 173.509 227.746 173.509 227.746L172.397 228.567C172.397 228.567 170.543 228.002 170.389 229.008C168.456 227.453 166.628 225.773 164.917 223.978C164.485 223.527 164.181 222.969 164.035 222.363L162.38 215.245C162.38 215.245 162.38 209.508 161.497 208.758C160.615 208.008 160.963 206.309 160.963 206.309C161.568 206.327 162.896 206.675 163.646 208.877Z" fill="#FFA8A7"/>
<path d="M160.932 206.027C160.661 206.786 160.334 207.523 159.952 208.233C159.564 208.899 162.533 220.88 162.732 221.771C162.93 222.663 168.689 227.856 168.689 227.856C169.729 227.416 170.556 226.586 170.992 225.544L166.836 220.134C166.836 220.134 165.543 214.459 164.863 211.856C164.184 209.252 163.46 206.309 160.932 206.027Z" fill="#407BFF"/>
<path opacity="0.8" d="M160.932 206.027C160.661 206.786 160.334 207.523 159.952 208.233C159.564 208.899 162.533 220.88 162.732 221.771C162.93 222.663 168.689 227.856 168.689 227.856C169.729 227.416 170.556 226.586 170.992 225.544L166.836 220.134C166.836 220.134 165.543 214.459 164.863 211.856C164.184 209.252 163.46 206.309 160.932 206.027Z" fill="#0052CC"/>
<path d="M148.771 262.329H151.64V267.244H148.771V262.329Z" fill="#FFA8A7"/>
<path d="M160.509 263.52L163.377 263.622L163.518 258.419L160.509 258.322V263.52Z" fill="#FFA8A7"/>
<path d="M149.172 227.252C149.172 229.992 148.982 245.931 148.982 245.931C148.916 246.716 148.157 248.137 148.1 250.961C148.016 255.083 148.651 264.786 148.651 264.786C149.147 265.029 149.69 265.161 150.242 265.172C150.794 265.182 151.341 265.072 151.846 264.848C151.846 264.848 154.101 251.125 154.613 247.043C155.054 243.486 156.612 233.986 156.612 233.986L158.818 246.015C158.485 247.511 158.365 249.047 158.461 250.577C158.597 252.462 160.345 261.909 160.345 261.909C160.845 262.192 161.401 262.362 161.973 262.406C162.546 262.45 163.121 262.368 163.659 262.165C163.659 262.165 163.831 247.334 163.862 245.604C163.901 243.632 163.041 226.656 163.041 226.656L149.172 227.252Z" fill="#37474F"/>
<path d="M151.638 265.828V265.417C151.793 265.417 151.885 265.567 151.947 265.933C151.988 266.207 152.044 266.478 152.115 266.745C152.241 267.248 152.408 267.739 152.614 268.215C153.019 269.216 153.359 269.587 154.29 270.756C154.606 271.08 154.9 271.424 155.173 271.785C155.345 272.094 155.407 272.95 155.111 273.148C154.03 273.872 152.384 273.889 151.219 273.55C150.786 273.428 150.396 273.185 150.096 272.848C149.797 272.512 149.6 272.097 149.529 271.652C149.485 271.388 149.503 271.114 149.472 270.849C149.369 270.244 149.122 269.671 148.752 269.181C148.538 268.898 148.353 268.593 148.201 268.272C147.963 267.685 148.152 267.019 148.307 266.432C148.439 265.925 148.585 265.369 148.748 265.417V265.726C149.157 266.05 149.665 266.221 150.187 266.211C150.623 266.229 151.643 266.145 151.638 265.828Z" fill="#263238"/>
<path d="M163.407 262.735C163.557 262.735 163.677 262.951 164.008 263.308C164.499 263.803 165.068 264.213 165.693 264.522C166.77 265.06 168.857 265.885 169.806 266.313C170.397 266.578 170.366 267.293 169.757 267.699C169.148 268.105 167.67 268.396 165.901 268.003C164.939 267.787 163.694 266.896 162.887 266.944C162.079 266.993 160.605 266.98 160.019 266.574C159.432 266.168 159.666 265.307 159.833 264.566C160.014 263.758 160.239 262.492 160.508 262.549V262.827C160.853 263.352 162.635 263.564 163.39 263.18L163.407 262.735Z" fill="#263238"/>
<path d="M156.608 233.986C158.094 233.527 159.462 232.748 160.615 231.704C160.615 231.704 159.843 233.152 157.526 234.493L158.638 245.194L156.608 233.986Z" fill="#263238"/>
<path d="M154.151 206.221C153.171 206.46 151.203 206.782 150.762 208.728C150.232 211.062 150.06 216.15 150.06 216.15L149.879 227.473C151.856 228.911 159.115 229.679 163.276 226.657C163.276 226.657 162.764 213.066 162.764 210.947C162.764 208.829 161.59 206.288 158.352 206.094L154.151 206.221Z" fill="#F5F5F5"/>
<path d="M158.298 205.882C159.191 206.629 159.837 207.629 160.151 208.75C160.549 210.462 160.593 229.582 160.593 229.582C160.593 229.582 162.623 229.207 163.571 228.461C163.571 228.461 163.452 213.37 163.258 210.872C162.962 207.091 162.993 206.019 158.285 205.599L158.298 205.882Z" fill="#0052CC"/>
<path d="M153.294 205.599C153.294 205.599 155.999 207.263 156.03 213.886C156.056 219.623 156.246 229.582 156.246 229.582C156.246 229.582 151.767 230.24 148.93 228.545C148.93 228.545 148.59 214.663 148.647 212.514C148.709 210.052 149.283 206.87 150.072 206.552C151.121 206.155 152.198 205.836 153.294 205.599Z" fill="#0052CC"/>
<path d="M143.233 220.805C145.924 209.8 147.915 206.128 151.176 206.173C152.133 207.311 151.868 210.762 150.359 212.853C150.359 212.853 146.992 219.949 146.458 222.473C145.986 224.679 145.452 227.481 145.483 229.388C145.494 229.725 145.628 230.046 145.858 230.292C146.472 230.959 146.476 231.497 146.873 232.234C147.186 232.808 147.526 233.024 147.429 233.156C147.301 233.293 147.126 233.376 146.938 233.39C146.751 233.404 146.566 233.347 146.419 233.231C146.131 233.022 145.875 232.774 145.655 232.494C145.761 233.2 145.964 233.888 146.26 234.537C146.953 236.095 146.785 236.889 144.68 236.333C143.356 235.985 142.535 234.89 142.341 231.722C142.244 230.557 142.233 229.386 142.306 228.218C142.593 225.218 142.796 222.579 143.233 220.805Z" fill="#FFA8A7"/>
<path d="M151.745 205.992C151.745 205.992 149.578 205.894 148.405 207.081C147.231 208.268 145.647 210.766 144.111 216.225C142.576 221.683 142.103 225.672 142.028 228.743C142.028 228.743 143.952 229.626 145.726 228.62C145.726 228.62 146.512 223.867 147.209 221.339C147.906 218.81 150.505 213.484 150.505 213.484C150.505 213.484 152.989 209.791 151.745 205.992Z" fill="#407BFF"/>
<path d="M151.745 205.992C151.745 205.992 149.578 205.894 148.405 207.081C147.231 208.268 145.647 210.766 144.111 216.225C142.576 221.683 142.103 225.672 142.028 228.743C142.028 228.743 143.952 229.626 145.726 228.62C145.726 228.62 146.512 223.867 147.209 221.339C147.906 218.81 150.505 213.484 150.505 213.484C150.505 213.484 152.989 209.791 151.745 205.992Z" fill="#0051CB" fill-opacity="0.8"/>
<path opacity="0.1" d="M152.988 209.222L154.228 210.753L153.606 212.5L155.234 216.675L153.275 212.5L153.959 210.85L152.988 209.222Z" fill="black"/>
<path opacity="0.1" d="M161.725 208.728L161.456 210.312L162.528 211.711L161.037 216.406L162.193 211.764L161.204 210.457L161.725 208.728Z" fill="black"/>
<path d="M154.897 197.426C154.548 195.276 156.008 193.249 158.159 192.9C160.309 192.551 162.335 194.011 162.685 196.162C163.034 198.313 161.573 200.339 159.423 200.688C157.272 201.037 155.246 199.577 154.897 197.426Z" fill="#263238"/>
<path d="M151.973 199.593C151.973 199.593 152.613 202.598 152.856 203.092C153.027 203.395 153.308 203.621 153.641 203.723L153.597 201.61L151.973 199.593Z" fill="#263238"/>
<path d="M152.778 195.291C152.554 195.266 152.326 195.293 152.114 195.369C151.901 195.446 151.709 195.57 151.552 195.732C151.026 196.271 151.318 197.939 151.993 199.602L153.198 199.739L152.778 195.291Z" fill="#263238"/>
<path d="M153.556 199.735C153.313 199.876 152.969 199.413 152.673 199.104C152.557 198.967 152.407 198.862 152.239 198.8C152.07 198.738 151.889 198.72 151.711 198.749C151.534 198.777 151.367 198.85 151.226 198.962C151.086 199.074 150.976 199.22 150.908 199.386C150.414 200.428 151.349 201.804 152.1 202.034C153.423 202.449 153.618 201.593 153.618 201.593L153.715 206.495C154.628 207.664 156.676 209.041 157.779 208.843C158.661 208.688 158.851 207.201 158.008 206.226V204.787C158.592 204.88 159.183 204.91 159.773 204.876C160.744 204.726 161.353 203.962 161.649 202.912C162.121 201.226 162.302 199.867 161.9 196.549C161.459 192.913 157.232 192.877 154.95 194.312C152.669 195.746 153.556 199.735 153.556 199.735Z" fill="#FFA8A7"/>
<path d="M153.554 200.14C153.431 200.14 152.967 199.377 152.672 199.103C152.257 198.724 152.795 195.291 152.795 195.291C152.651 194.989 152.601 194.65 152.652 194.32C152.704 193.989 152.853 193.682 153.082 193.437C153.651 192.811 154.445 192.043 157.053 192.352C158.898 192.568 160.906 193.142 162.529 192.352C162.68 192.881 162.668 193.443 162.497 193.966C162.325 194.489 162.002 194.949 161.568 195.286C160.902 195.616 160.177 195.809 159.436 195.851C158.01 195.959 156.577 195.932 155.156 195.772C154.715 195.71 154.613 196.142 154.37 197.329C154.123 198.366 153.947 200.131 153.554 200.14Z" fill="#263238"/>
<path d="M152.777 195.56L151.317 194.775C151.364 194.676 151.43 194.588 151.512 194.516C151.593 194.444 151.689 194.389 151.792 194.355C151.896 194.321 152.005 194.308 152.114 194.317C152.222 194.326 152.328 194.357 152.424 194.408C152.618 194.52 152.762 194.701 152.828 194.915C152.893 195.128 152.875 195.359 152.777 195.56Z" fill="#263238"/>
<path d="M157.996 204.787C156.999 204.597 156.021 204.316 155.075 203.949C154.63 203.716 154.265 203.355 154.029 202.912C154.143 203.355 154.346 203.771 154.625 204.134C155.177 204.84 157.996 205.361 157.996 205.361V204.787Z" fill="#F28F8F"/>
<path d="M157.478 199.191C157.478 199.308 157.432 199.421 157.349 199.503C157.266 199.586 157.154 199.633 157.037 199.633C156.92 199.633 156.808 199.586 156.725 199.503C156.642 199.421 156.596 199.308 156.596 199.191C156.596 199.074 156.642 198.962 156.725 198.879C156.808 198.797 156.92 198.75 157.037 198.75C157.154 198.75 157.266 198.797 157.349 198.879C157.432 198.962 157.478 199.074 157.478 199.191Z" fill="#263238"/>
<path d="M157.019 197.555L156.092 198.067C156.026 197.939 156.012 197.791 156.052 197.653C156.092 197.515 156.184 197.398 156.308 197.325C156.369 197.292 156.437 197.272 156.506 197.265C156.576 197.259 156.646 197.267 156.712 197.288C156.779 197.31 156.84 197.344 156.893 197.39C156.945 197.436 156.988 197.492 157.019 197.555Z" fill="#263238"/>
<path d="M157.805 202.188L158.794 202.559C158.773 202.625 158.739 202.687 158.693 202.74C158.648 202.794 158.592 202.837 158.529 202.868C158.467 202.899 158.398 202.917 158.328 202.921C158.259 202.924 158.189 202.914 158.123 202.89C157.99 202.836 157.882 202.734 157.823 202.603C157.764 202.472 157.757 202.323 157.805 202.188Z" fill="#F28F8F"/>
<path d="M161.346 197.916L160.499 197.263C160.539 197.206 160.59 197.158 160.649 197.121C160.708 197.084 160.774 197.059 160.843 197.049C160.912 197.038 160.982 197.041 161.05 197.059C161.117 197.076 161.181 197.106 161.236 197.149C161.349 197.238 161.423 197.368 161.444 197.511C161.464 197.653 161.429 197.799 161.346 197.916Z" fill="#263238"/>
<path d="M161.085 199.05C161.085 199.167 161.039 199.28 160.956 199.362C160.873 199.445 160.761 199.492 160.644 199.492C160.527 199.492 160.415 199.445 160.332 199.362C160.249 199.28 160.203 199.167 160.203 199.05C160.203 198.933 160.249 198.821 160.332 198.738C160.415 198.656 160.527 198.609 160.644 198.609C160.761 198.609 160.873 198.656 160.956 198.738C161.039 198.821 161.085 198.933 161.085 199.05Z" fill="#263238"/>
<path d="M158.875 198.658L159.016 201.266L160.38 200.802L158.875 198.658Z" fill="#F28F8F"/>
<path d="M159.349 208.56C159.084 209.195 158.59 209.442 157.703 209.553C157.254 209.58 156.804 209.516 156.381 209.365C155.958 209.213 155.57 208.977 155.241 208.67L156.344 207.572L157.751 208.626L157.871 207.448L159.349 208.56Z" fill="#407BFF"/>
<path opacity="0.1" d="M159.349 208.56C159.084 209.195 158.59 209.442 157.703 209.553C157.254 209.58 156.804 209.516 156.381 209.365C155.958 209.213 155.57 208.977 155.241 208.67L156.344 207.572L157.751 208.626L157.871 207.448L159.349 208.56Z" fill="black"/>
<path d="M158.65 208.215C158.78 208.597 158.83 209.001 158.796 209.402C158.754 209.76 158.616 210.1 158.399 210.386C158.259 210.476 158.1 210.533 157.934 210.551C157.769 210.57 157.602 210.549 157.445 210.492C157.16 210.247 156.93 209.943 156.773 209.601C156.615 209.259 156.533 208.887 156.532 208.511L157.75 208.648L158.65 208.215Z" fill="#0052CC"/>
<path d="M158.408 210.387C158.408 210.387 159.851 218.33 159.908 218.983C159.966 219.636 159.083 221.904 158.532 221.921C157.98 221.939 156.903 219.878 156.89 219.274C156.877 218.669 157.455 210.471 157.455 210.471L158.408 210.387Z" fill="#0052CC"/>
<path opacity="0.1" d="M157.445 210.493C157.599 210.561 157.768 210.587 157.935 210.568C158.103 210.55 158.262 210.487 158.398 210.387V210.515C158.26 210.625 158.098 210.7 157.925 210.733C157.752 210.767 157.574 210.759 157.405 210.709L157.445 210.493Z" fill="black"/>
<path d="M157.75 208.649L153.691 205.56V204.642C153.691 204.642 152.747 204.999 152.535 206.663C153.186 208.106 154.299 209.29 155.699 210.03L156.55 208.512L157.75 208.649Z" fill="#E0E0E0"/>
<path d="M157.998 205.06C158.529 205.144 159.005 205.435 159.322 205.868C159.728 206.534 159.635 209.098 159.635 209.098L158.664 208.216L157.782 208.657C157.866 207.805 158.033 206.252 158.033 206.252L157.998 205.06Z" fill="#E0E0E0"/>
<path d="M173.852 233.148C173.472 232.615 173.251 231.987 173.212 231.334C173.097 230.5 170.811 229.604 170.736 230.227C170.661 230.849 170.454 231.365 171.177 232.12C171.901 232.874 172.788 233.708 173.852 233.148Z" fill="#FFA8A7"/>
<path d="M173.734 227.76C174.281 228.466 174.616 229.838 174.907 230.302C175.199 230.765 175.543 231.184 174.907 231.25C174.272 231.317 173.35 230.099 173.005 229.349C172.872 229.052 172.669 228.791 172.414 228.59C172.314 228.509 172.202 228.444 172.083 228.395C172.379 228.294 172.224 227.102 172.432 226.939C172.432 226.939 173.509 227.38 173.734 227.76Z" fill="#FFA8A7"/>
<path opacity="0.2" d="M190.83 298.505C173.842 298.505 160.07 294.5 160.07 289.561C160.07 284.621 173.842 280.616 190.83 280.616C207.819 280.616 221.59 284.621 221.59 289.561C221.59 294.5 207.819 298.505 190.83 298.505Z" fill="#B3D4FF"/>
<path opacity="0.2" d="M152.241 277.364C135.253 277.364 121.481 273.36 121.481 268.42C121.481 263.48 135.253 259.476 152.241 259.476C169.229 259.476 183.001 263.48 183.001 268.42C183.001 273.36 169.229 277.364 152.241 277.364Z" fill="#B3D4FF"/>
<path d="M140.94 262.083L142.095 261.539C142.095 261.539 142.467 257.37 142.095 254.587C141.35 249.405 137.732 244.938 134.51 244.413C130.359 243.738 131.097 247.557 133.47 249.207C137.252 251.852 140.195 255.85 140.94 262.083Z" fill="#0052CC"/>
<g opacity="0.1">
<path opacity="0.1" d="M140.94 262.083L142.095 261.539C142.095 261.539 142.467 257.37 142.095 254.587C141.35 249.405 137.732 244.938 134.51 244.413C130.359 243.738 131.097 247.557 133.47 249.207C137.252 251.852 140.195 255.85 140.94 262.083Z" fill="black"/>
</g>
<path d="M141.376 260.422H141.346C141.294 260.412 141.247 260.381 141.217 260.337C141.187 260.293 141.176 260.239 141.186 260.187C141.991 255.929 138.485 248.034 133.794 245.792C133.745 245.768 133.707 245.726 133.688 245.675C133.67 245.624 133.673 245.567 133.696 245.518C133.719 245.468 133.761 245.43 133.812 245.412C133.864 245.393 133.92 245.396 133.97 245.419C138.813 247.729 142.412 255.85 141.584 260.254C141.576 260.303 141.551 260.347 141.512 260.377C141.474 260.408 141.425 260.424 141.376 260.422Z" fill="white"/>
<path d="M142.092 261.539C142.178 260.921 142.215 260.019 142.226 259.795C142.275 259.01 142.159 258.224 141.887 257.486C141.53 256.51 140.851 255.686 139.961 255.15C139.477 254.87 138.911 254.669 138.598 254.207C138.371 253.782 138.249 253.307 138.244 252.825C138.147 252.046 137.905 251.223 137.279 250.746C136.653 250.269 135.789 250.258 135.044 250.34C133.926 250.459 132.879 250.608 131.836 250.098C131.003 249.655 130.141 249.267 129.258 248.936C128.14 248.563 125.64 248.004 125.115 249.573C125.056 249.789 125.045 250.016 125.084 250.237C125.124 250.458 125.212 250.668 125.342 250.851C125.607 251.214 125.923 251.537 126.281 251.808L128.029 253.261C128.237 253.414 128.417 253.602 128.561 253.816C128.9 254.397 128.658 255.131 128.733 255.798C128.78 256.137 128.9 256.462 129.086 256.75C129.271 257.039 129.517 257.283 129.806 257.467C130.388 257.832 131.073 257.998 131.758 257.94C132.67 257.877 134.161 257.176 134.72 258.253C134.874 258.62 134.965 259.011 134.988 259.408C135.01 259.807 135.138 260.193 135.36 260.526C135.733 260.98 136.355 261.111 136.936 261.17C137.75 261.185 138.559 261.31 139.339 261.543C139.652 261.666 139.85 262.064 140.032 262.329C140.602 262.139 141.228 261.912 142.092 261.539Z" fill="#0052CC"/>
<path d="M141.583 261.226C141.611 261.233 141.641 261.233 141.669 261.226C141.715 261.207 141.752 261.17 141.771 261.124C141.791 261.078 141.791 261.027 141.773 260.98C139.426 255.15 131.938 250.973 127.474 249.587C127.451 249.58 127.426 249.577 127.401 249.58C127.376 249.582 127.352 249.59 127.33 249.601C127.309 249.613 127.289 249.629 127.274 249.649C127.258 249.668 127.247 249.69 127.24 249.714C127.226 249.762 127.231 249.813 127.254 249.856C127.277 249.9 127.316 249.933 127.363 249.949C131.755 251.312 139.124 255.41 141.423 261.125C141.439 261.154 141.462 261.179 141.49 261.197C141.518 261.214 141.55 261.224 141.583 261.226Z" fill="white"/>
<defs>
<linearGradient id="paint0_linear_1_3026" x1="67.6811" y1="266.54" x2="67.6811" y2="413.599" gradientUnits="userSpaceOnUse">
<stop stop-color="#E2F2F8"/>
<stop offset="1" stop-color="white" stop-opacity="0"/>
</linearGradient>
<linearGradient id="paint1_linear_1_3026" x1="336.213" y1="285.802" x2="329.121" y2="492.918" gradientUnits="userSpaceOnUse">
<stop offset="0.189928" stop-color="#E2F2F8"/>
<stop offset="1" stop-color="white" stop-opacity="0"/>
</linearGradient>
</defs>
</svg>
