<svg width="48" height="48" viewBox="0 0 48 48" fill="none" xmlns="http://www.w3.org/2000/svg">
<circle cx="24" cy="24" r="24" fill="#008DA6"/>
<path d="M25.6833 31.6873H24.72C24.634 31.6873 24.5515 31.6532 24.4907 31.5924C24.4299 31.5315 24.3957 31.449 24.3957 31.363C24.3957 31.277 24.4299 31.1945 24.4907 31.1337C24.5515 31.0729 24.634 31.0387 24.72 31.0387H25.6833C25.7693 31.0387 25.8518 31.0729 25.9126 31.1337C25.9734 31.1945 26.0076 31.277 26.0076 31.363C26.0076 31.449 25.9734 31.5315 25.9126 31.5924C25.8518 31.6532 25.7693 31.6873 25.6833 31.6873Z" fill="#FAFBFC"/>
<path d="M35.0271 31.6873H27.9536C27.8675 31.6873 27.785 31.6531 27.7242 31.5923C27.6634 31.5315 27.6292 31.449 27.6292 31.363C27.6292 31.2769 27.6634 31.1945 27.7242 31.1336C27.785 31.0728 27.8675 31.0386 27.9536 31.0386H34.5604L31.2519 22.145L29.5045 23.572C29.47 23.6 29.4301 23.6206 29.3873 23.6326C29.3445 23.6445 29.2998 23.6475 29.2558 23.6414C29.2118 23.6354 29.1695 23.6203 29.1315 23.5972C29.0936 23.5741 29.0608 23.5435 29.0352 23.5072L24.5443 17.1884L20.5466 25.5387C20.5251 25.5838 20.4934 25.6233 20.4541 25.6541C20.4148 25.6849 20.3688 25.7061 20.3199 25.7163C20.271 25.7264 20.2204 25.7251 20.1721 25.7125C20.1238 25.6999 20.079 25.6763 20.0413 25.6435L17.6757 23.5896L13.5244 31.0386H19.239C19.325 31.0386 19.4075 31.0728 19.4683 31.1336C19.5291 31.1945 19.5633 31.2769 19.5633 31.363C19.5633 31.449 19.5291 31.5315 19.4683 31.5923C19.4075 31.6531 19.325 31.6873 19.239 31.6873H12.973C12.9165 31.6873 12.8609 31.6726 12.8118 31.6445C12.7628 31.6164 12.7219 31.576 12.6932 31.5273C12.6646 31.4786 12.6492 31.4232 12.6485 31.3666C12.6479 31.3101 12.662 31.2544 12.6896 31.205L17.3047 22.925C17.3282 22.8828 17.3608 22.8464 17.4001 22.8185C17.4395 22.7905 17.4845 22.7717 17.5321 22.7633C17.5796 22.755 17.6284 22.7574 17.675 22.7703C17.7215 22.7833 17.7645 22.8064 17.8009 22.8381L20.1454 24.8745L24.1972 16.4113C24.2216 16.3604 24.2588 16.3167 24.3053 16.2845C24.3517 16.2524 24.4057 16.233 24.4619 16.2281C24.5182 16.2233 24.5747 16.2332 24.626 16.2569C24.6772 16.2806 24.7214 16.3173 24.7541 16.3633L29.3631 22.8498L31.1929 21.3563C31.2329 21.3237 31.28 21.3011 31.3304 21.2904C31.3808 21.2797 31.4331 21.2811 31.4828 21.2946C31.5326 21.3081 31.5784 21.3333 31.6165 21.3681C31.6545 21.4028 31.6838 21.4461 31.7018 21.4944L35.331 31.2504C35.3491 31.2994 35.3551 31.3521 35.3485 31.4039C35.3419 31.4558 35.3229 31.5053 35.293 31.5482C35.2632 31.5911 35.2234 31.6261 35.1771 31.6503C35.1308 31.6746 35.0793 31.6872 35.0271 31.6873Z" fill="#FAFBFC"/>
<path d="M22.4497 31.6873H21.5092C21.4232 31.6873 21.3407 31.6532 21.2798 31.5924C21.219 31.5315 21.1848 31.449 21.1848 31.363C21.1848 31.277 21.219 31.1945 21.2798 31.1337C21.3407 31.0729 21.4232 31.0387 21.5092 31.0387H22.4497C22.5357 31.0387 22.6182 31.0729 22.679 31.1337C22.7399 31.1945 22.774 31.277 22.774 31.363C22.774 31.449 22.7399 31.5315 22.679 31.5924C22.6182 31.6532 22.5357 31.6873 22.4497 31.6873Z" fill="#FAFBFC"/>
<path d="M22.1569 21.7467C22.0796 21.7469 22.0048 21.7194 21.946 21.6693C21.8872 21.6192 21.8481 21.5498 21.836 21.4735C21.8238 21.3972 21.8393 21.319 21.8796 21.2531C21.92 21.1872 21.9825 21.1379 22.056 21.114L24.4696 20.323C24.661 20.2604 24.8688 20.2703 25.0534 20.3509L25.717 20.6405C25.7473 20.6538 25.7808 20.6582 25.8135 20.6531C25.8462 20.6479 25.8767 20.6336 25.9015 20.6116L26.7772 19.8358C26.8091 19.8076 26.8463 19.786 26.8866 19.7721C26.9269 19.7583 26.9696 19.7525 27.0121 19.7551C27.0546 19.7578 27.0963 19.7688 27.1345 19.7875C27.1728 19.8062 27.2071 19.8323 27.2353 19.8642C27.2635 19.8961 27.2852 19.9333 27.299 19.9736C27.3128 20.014 27.3186 20.0566 27.316 20.0991C27.3133 20.1417 27.3024 20.1833 27.2836 20.2216C27.2649 20.2599 27.2389 20.2941 27.2069 20.3223L26.3312 21.0981C26.2136 21.2016 26.0689 21.2695 25.9142 21.2938C25.7594 21.3182 25.6009 21.298 25.4572 21.2356L24.7939 20.946C24.7548 20.9287 24.7106 20.9266 24.67 20.9402L22.2564 21.7318C22.2242 21.742 22.1906 21.747 22.1569 21.7467Z" fill="#FAFBFC"/>
<path d="M24.4898 16.8766C24.4037 16.8766 24.3213 16.8424 24.2604 16.7816C24.1996 16.7208 24.1654 16.6383 24.1654 16.5523V12.136C24.1654 12.05 24.1996 11.9675 24.2604 11.9066C24.3213 11.8458 24.4037 11.8116 24.4898 11.8116C24.5758 11.8116 24.6583 11.8458 24.7191 11.9066C24.7799 11.9675 24.8141 12.05 24.8141 12.136V16.5523C24.8141 16.6383 24.7799 16.7208 24.7191 16.7816C24.6583 16.8424 24.5758 16.8766 24.4898 16.8766Z" fill="#FAFBFC"/>
<path d="M27.5248 14.7141H24.4898C24.4037 14.7141 24.3213 14.6799 24.2604 14.6191C24.1996 14.5583 24.1654 14.4758 24.1654 14.3897V12.4691C24.1654 12.3831 24.1996 12.3006 24.2604 12.2398C24.3213 12.1789 24.4037 12.1448 24.4898 12.1448H27.5248C27.6108 12.1448 27.6933 12.1789 27.7541 12.2398C27.815 12.3006 27.8491 12.3831 27.8491 12.4691V14.3897C27.8491 14.4758 27.815 14.5583 27.7541 14.6191C27.6933 14.6799 27.6108 14.7141 27.5248 14.7141ZM24.8141 14.0654H27.2005V12.7934H24.8141V14.0654Z" fill="#FAFBFC"/>
</svg>
