<svg width="48" height="49" viewBox="0 0 48 49" fill="none" xmlns="http://www.w3.org/2000/svg">
<circle cx="24" cy="24.0186" r="24" fill="#FF8B00"/>
<g clip-path="url(#clip0_1_1329)">
<path d="M35.8102 13.2297C35.7115 13.1784 35.5978 13.179 35.5011 13.2233C35.5011 13.2229 35.4718 13.2372 35.47 13.2383L15.459 24.9477C15.3219 25.0281 15.2556 25.1903 15.2971 25.3437C15.3387 25.4972 15.4781 25.6037 15.637 25.6037H21.4954L24.762 28.3186C24.7646 28.3208 24.7677 28.3223 24.7704 28.3245C24.7821 28.3336 24.7942 28.3422 24.8072 28.3499C24.8136 28.3538 24.8202 28.3571 24.8268 28.3604C24.8329 28.3635 24.8382 28.367 24.8442 28.3697C24.8503 28.3723 24.8563 28.3743 24.8623 28.3767C24.8662 28.378 24.8699 28.3796 24.8737 28.3809C24.8898 28.3864 24.9063 28.3906 24.923 28.3937C24.9266 28.3944 24.9305 28.395 24.9341 28.3955C24.9517 28.3981 24.9691 28.3999 24.9867 28.3999H24.9869C24.9988 28.3999 25.0105 28.3992 25.0222 28.3981C25.0259 28.3977 25.0295 28.397 25.0332 28.3964C25.0412 28.3955 25.0491 28.3942 25.057 28.3926C25.0614 28.3917 25.0658 28.3906 25.0702 28.3897C25.0771 28.3878 25.0843 28.386 25.0912 28.3838C25.0958 28.3823 25.1004 28.3809 25.105 28.3792C25.1117 28.3769 25.1181 28.3743 25.1247 28.3715C25.1293 28.3695 25.1337 28.3677 25.1383 28.3657C25.1451 28.3624 25.1518 28.3585 25.1586 28.3549C25.1623 28.3529 25.1661 28.351 25.1698 28.3488C25.1797 28.3428 25.1894 28.3362 25.1987 28.3292C25.2018 28.3269 25.2048 28.3241 25.2079 28.3216C25.213 28.3173 25.2183 28.3133 25.2234 28.3089L28.2121 25.6035H33.0264C33.1912 25.6035 33.334 25.4893 33.3699 25.3285L35.9914 13.619C36.0262 13.4632 35.9519 13.3035 35.8102 13.2297ZM21.4951 24.8995H16.9357L32.1777 15.9805L21.4951 24.8995ZM25.339 27.2542V25.6037H27.1627L25.339 27.2542ZM32.7443 24.8995H25.7835L27.5692 22.9383C27.7001 22.7945 27.6897 22.5719 27.5459 22.441C27.4022 22.31 27.1795 22.3203 27.0486 22.4642L24.7267 25.0145C24.7254 25.0158 24.7245 25.0174 24.7232 25.0187C24.7029 25.0418 24.6856 25.0674 24.6719 25.0951C24.6705 25.098 24.669 25.1007 24.6677 25.1037C24.6551 25.131 24.6459 25.1601 24.6404 25.1905C24.6399 25.1939 24.6393 25.1976 24.6388 25.2013C24.6371 25.2134 24.636 25.2256 24.6355 25.2381C24.6353 25.2412 24.6351 25.2445 24.6351 25.2476C24.6351 25.2491 24.6349 25.2503 24.6349 25.2516V27.2975L22.1727 25.2509L31.9221 17.1113L27.9967 21.4229C27.8658 21.5666 27.8762 21.7893 28.02 21.9202C28.1637 22.0511 28.3866 22.0407 28.5173 21.897L35.014 14.7612L32.7443 24.8995Z" fill="#FAFBFC"/>
<path d="M14.6182 19.3367H16.0893C16.2836 19.3367 16.4412 19.179 16.4412 18.9846C16.4412 18.7901 16.2836 18.6325 16.0893 18.6325H14.6182C14.3293 18.6325 14.0942 18.3974 14.0942 18.1082C14.0942 17.8193 14.3293 17.584 14.6182 17.584H15.1331C15.2551 17.584 15.3682 17.521 15.4325 17.4174C15.4966 17.3138 15.5026 17.1845 15.4484 17.0753C15.3638 16.9051 15.3208 16.722 15.3208 16.531C15.3208 15.8553 15.8705 15.3056 16.5461 15.3056C17.2218 15.3056 17.7713 15.8553 17.7713 16.531C17.7713 16.722 17.7285 16.9051 17.6439 17.0753C17.5895 17.1845 17.5955 17.3138 17.6598 17.4174C17.7241 17.521 17.8372 17.584 17.959 17.584H18.5323C18.7267 17.584 18.8844 17.4265 18.8844 17.2321C18.8844 16.7818 19.2506 16.4156 19.7007 16.4156C20.1482 16.4156 20.5128 16.7776 20.517 17.2242C20.5168 17.2292 20.5166 17.2339 20.5166 17.2378C20.5151 17.4154 20.6462 17.5663 20.8222 17.5897C21.0813 17.6241 21.2765 17.8471 21.2765 18.1082C21.2765 18.3974 21.0414 18.6325 20.7523 18.6325H17.4976C17.3031 18.6325 17.1454 18.7901 17.1454 18.9846C17.1454 19.179 17.3031 19.3367 17.4976 19.3367H20.7523C21.4296 19.3367 21.9807 18.7857 21.9807 18.1082C21.9807 17.595 21.6592 17.1446 21.1976 16.9644C21.0709 16.2532 20.4479 15.7116 19.7009 15.7116C19.1933 15.7116 18.743 15.9615 18.4666 16.3448C18.3726 15.3679 17.5472 14.6016 16.5461 14.6016C15.4821 14.6016 14.6168 15.4671 14.6168 16.531C14.6168 16.6493 14.6272 16.7659 14.6481 16.88H14.6182C13.9409 16.88 13.3898 17.4309 13.3898 18.1082C13.3898 18.7857 13.9409 19.3367 14.6182 19.3367Z" fill="#FAFBFC"/>
<path d="M33.9956 32.9095C33.8748 32.3614 33.3852 31.9502 32.8012 31.9502C32.4651 31.9502 32.16 32.0866 31.9388 32.307C31.7824 31.6294 31.1743 31.1229 30.45 31.1229C29.6077 31.1229 28.9223 31.8083 28.9223 32.6505C28.9223 32.7091 28.9256 32.767 28.932 32.8243C28.4155 32.8657 28.0079 33.2993 28.0079 33.8263C28.0079 34.3805 28.4589 34.8315 29.0132 34.8315H33.5851C34.1394 34.8315 34.5904 34.3805 34.5904 33.8263C34.5904 33.4234 34.3485 33.068 33.9956 32.9095ZM33.5851 34.1273H29.0132C28.8471 34.1273 28.7121 33.9922 28.7121 33.8263C28.7121 33.6602 28.8471 33.5252 29.0132 33.5252H29.3969C29.5187 33.5252 29.632 33.4621 29.6961 33.3586C29.7604 33.255 29.7664 33.1255 29.7121 33.0164C29.6553 32.9019 29.6264 32.7789 29.6264 32.6505C29.6264 32.1964 29.9959 31.8271 30.45 31.8271C30.9041 31.8271 31.2736 32.1964 31.2736 32.6505C31.2736 32.7789 31.2447 32.9019 31.1879 33.0164C31.1335 33.1255 31.1396 33.255 31.2038 33.3586C31.2681 33.4621 31.3813 33.5252 31.503 33.5252H31.9304C32.1248 33.5252 32.2825 33.3676 32.2825 33.1731C32.2825 32.8871 32.5152 32.6544 32.8012 32.6544C33.0849 32.6544 33.3161 32.8833 33.32 33.1662C33.3198 33.1709 33.3196 33.1755 33.3196 33.1795C33.3196 33.356 33.4503 33.5053 33.6252 33.5285C33.7739 33.5483 33.8861 33.6763 33.8861 33.8263C33.8861 33.9922 33.751 34.1273 33.5851 34.1273Z" fill="#FAFBFC"/>
<path d="M17.9877 29.6232C17.8669 29.0751 17.3773 28.6641 16.7935 28.6641C16.4572 28.6641 16.1521 28.8003 15.9309 29.0208C15.7745 28.3433 15.1664 27.8366 14.4421 27.8366C13.5998 27.8366 12.9144 28.5222 12.9144 29.3644C12.9144 29.4229 12.9177 29.4809 12.9241 29.538C12.4076 29.5796 12 30.0132 12 30.54C12 31.0944 12.451 31.5452 13.0052 31.5452H17.5772C18.1315 31.5452 18.5825 31.0944 18.5825 30.54C18.5825 30.1373 18.3406 29.7817 17.9877 29.6232ZM17.5772 30.8412H13.0052C12.8392 30.8412 12.7042 30.7061 12.7042 30.54C12.7042 30.3741 12.8392 30.239 13.0052 30.239H13.389C13.5108 30.239 13.6241 30.176 13.6882 30.0723C13.7525 29.9687 13.7585 29.8394 13.7042 29.7301C13.6474 29.6158 13.6185 29.4928 13.6185 29.3644C13.6185 28.9103 13.988 28.5408 14.4421 28.5408C14.8962 28.5408 15.2657 28.9103 15.2657 29.3644C15.2657 29.4928 15.2368 29.6158 15.18 29.7301C15.1256 29.8394 15.1317 29.9687 15.1959 30.0723C15.2602 30.176 15.3734 30.239 15.4951 30.239H15.9225C16.1169 30.239 16.2746 30.0815 16.2746 29.8868C16.2746 29.6008 16.5073 29.3681 16.7933 29.3681C17.0771 29.3681 17.3082 29.5972 17.3121 29.8799C17.3119 29.8846 17.3117 29.8894 17.3117 29.8932C17.3117 30.0698 17.4424 30.219 17.6173 30.2424C17.766 30.262 17.8782 30.39 17.8782 30.54C17.8782 30.7061 17.7433 30.8412 17.5772 30.8412Z" fill="#FAFBFC"/>
</g>
<defs>
<clipPath id="clip0_1_1329">
<rect width="24" height="24" fill="white" transform="translate(12 12.0186)"/>
</clipPath>
</defs>
</svg>
