<svg width="48" height="49" viewBox="0 0 48 49" fill="none" xmlns="http://www.w3.org/2000/svg">
<circle cx="24" cy="24.0186" r="24" fill="#008DA6"/>
<path d="M21.2334 32.8079H20.2897C20.2036 32.8079 20.1211 32.7737 20.0603 32.7129C19.9995 32.6521 19.9653 32.5696 19.9653 32.4836C19.9653 32.3976 19.9995 32.3151 20.0603 32.2543C20.1211 32.1934 20.2036 32.1593 20.2897 32.1593H21.2334C21.3195 32.1593 21.4019 32.1934 21.4628 32.2543C21.5236 32.3151 21.5578 32.3976 21.5578 32.4836C21.5578 32.5696 21.5236 32.6521 21.4628 32.7129C21.4019 32.7737 21.3195 32.8079 21.2334 32.8079Z" fill="white"/>
<path d="M33.9924 32.8077H26.7373C26.6513 32.8077 26.5688 32.7736 26.5079 32.7128C26.4471 32.6519 26.4129 32.5694 26.4129 32.4834C26.4129 32.3974 26.4471 32.3149 26.5079 32.2541C26.5688 32.1933 26.6513 32.1591 26.7373 32.1591H33.9924C34.1807 32.1589 34.3613 32.084 34.4945 31.9509C34.6276 31.8177 34.7025 31.6372 34.7027 31.4488V18.6996C34.7024 18.5113 34.6275 18.3308 34.4944 18.1977C34.3612 18.0645 34.1807 17.9896 33.9924 17.9894H14.0075C13.8192 17.9896 13.6387 18.0645 13.5056 18.1977C13.3724 18.3308 13.2975 18.5113 13.2973 18.6996V31.4488C13.2974 31.6372 13.3723 31.8177 13.5055 31.9509C13.6387 32.084 13.8192 32.1589 14.0075 32.1591H18.0194C18.1054 32.1591 18.1879 32.1933 18.2488 32.2541C18.3096 32.3149 18.3438 32.3974 18.3438 32.4834C18.3438 32.5694 18.3096 32.6519 18.2488 32.7128C18.1879 32.7736 18.1054 32.8077 18.0194 32.8077H14.0075C13.6474 32.8069 13.3022 32.6634 13.0476 32.4088C12.7929 32.1541 12.6495 31.809 12.6486 31.4488V18.6996C12.6495 18.3395 12.7929 17.9943 13.0476 17.7397C13.3022 17.485 13.6474 17.3416 14.0075 17.3407H33.9924C34.3525 17.3416 34.6977 17.485 34.9524 17.7397C35.207 17.9943 35.3505 18.3395 35.3513 18.6996V31.4488C35.3505 31.809 35.207 32.1541 34.9524 32.4088C34.6977 32.6634 34.3525 32.8069 33.9924 32.8077Z" fill="white"/>
<path d="M24.467 32.8079H23.5038C23.4178 32.8079 23.3353 32.7737 23.2745 32.7129C23.2136 32.6521 23.1795 32.5696 23.1795 32.4836C23.1795 32.3976 23.2136 32.3151 23.2745 32.2543C23.3353 32.1934 23.4178 32.1593 23.5038 32.1593H24.467C24.553 32.1593 24.6355 32.1934 24.6964 32.2543C24.7572 32.3151 24.7914 32.3976 24.7914 32.4836C24.7914 32.5696 24.7572 32.6521 24.6964 32.7129C24.6355 32.7737 24.553 32.8079 24.467 32.8079Z" fill="white"/>
<path d="M26.9288 17.9894H21.0711C20.9851 17.9894 20.9026 17.9552 20.8418 17.8944C20.781 17.8336 20.7468 17.7511 20.7468 17.6651L20.7504 16.215C20.7506 15.9538 20.8544 15.7033 21.039 15.5185C21.2237 15.3337 21.4741 15.2297 21.7354 15.2294H26.2723C26.5334 15.2297 26.7836 15.3336 26.9682 15.5182C27.1528 15.7028 27.2566 15.953 27.257 16.214L27.2531 17.6651C27.2531 17.7511 27.2189 17.8336 27.1581 17.8944C27.0973 17.9552 27.0148 17.9894 26.9288 17.9894ZM21.3964 17.3407H26.6054L26.6083 16.2144C26.6083 16.1252 26.5729 16.0397 26.5099 15.9767C26.4469 15.9136 26.3615 15.8781 26.2723 15.878H21.7354C21.6462 15.8781 21.5608 15.9135 21.4978 15.9765C21.4347 16.0395 21.3992 16.1249 21.399 16.214L21.3964 17.3407Z" fill="white"/>
<path d="M26.198 24.5375C26.1194 24.5375 26.0435 24.5089 25.9844 24.4571C25.9253 24.4054 25.887 24.3339 25.8766 24.256C25.8662 24.1781 25.8845 24.0991 25.928 24.0337C25.9715 23.9682 26.0372 23.9208 26.1131 23.9002L34.9415 21.4888C35.0245 21.4661 35.1131 21.4773 35.1879 21.52C35.2626 21.5626 35.3174 21.6332 35.3401 21.7162C35.3628 21.7992 35.3516 21.8878 35.309 21.9626C35.2663 22.0373 35.1957 22.0921 35.1127 22.1148L26.284 24.5252C26.256 24.5331 26.2271 24.5372 26.198 24.5375Z" fill="white"/>
<path d="M21.8019 24.5376C21.7728 24.5376 21.7439 24.5337 21.7159 24.526L12.8875 22.1133C12.8464 22.1021 12.8079 22.0828 12.7743 22.0567C12.7406 22.0306 12.7124 21.9981 12.6913 21.9611C12.6702 21.9241 12.6565 21.8833 12.6512 21.841C12.6459 21.7987 12.6489 21.7558 12.6602 21.7147C12.6714 21.6736 12.6906 21.6351 12.7167 21.6015C12.7429 21.5678 12.7754 21.5396 12.8124 21.5185C12.8494 21.4974 12.8902 21.4838 12.9325 21.4784C12.9747 21.4731 13.0176 21.4761 13.0587 21.4874L21.8869 23.8997C21.9627 23.9203 22.0284 23.9677 22.0719 24.0332C22.1154 24.0986 22.1337 24.1776 22.1233 24.2555C22.1129 24.3334 22.0746 24.4049 22.0155 24.4567C21.9564 24.5084 21.8805 24.537 21.8019 24.537V24.5376Z" fill="white"/>
<path d="M25.9884 25.7427H22.0109C21.8697 25.7425 21.7344 25.6863 21.6346 25.5865C21.5348 25.4866 21.4787 25.3513 21.4786 25.2101V23.3868C21.4787 23.2456 21.5348 23.1103 21.6346 23.0104C21.7344 22.9106 21.8697 22.8544 22.0109 22.8542H25.9884C26.1296 22.8544 26.2649 22.9106 26.3647 23.0104C26.4646 23.1102 26.5207 23.2456 26.5209 23.3868V25.2101C26.5207 25.3513 26.4646 25.4867 26.3647 25.5865C26.2649 25.6863 26.1296 25.7425 25.9884 25.7427ZM22.1289 25.094H25.8723V23.5029H22.1273L22.1289 25.094Z" fill="white"/>
</svg>
