<svg width="48" height="49" viewBox="0 0 48 49" fill="none" xmlns="http://www.w3.org/2000/svg">
<circle cx="24" cy="24.3398" r="24" fill="#0052CC"/>
<g clip-path="url(#clip0_1_1359)">
<path d="M24.7103 35.6975H23.7471C23.661 35.6975 23.5785 35.6633 23.5177 35.6025C23.4569 35.5417 23.4227 35.4592 23.4227 35.3732C23.4227 35.2871 23.4569 35.2046 23.5177 35.1438C23.5785 35.083 23.661 35.0488 23.7471 35.0488H24.7103C24.7963 35.0488 24.8788 35.083 24.9396 35.1438C25.0004 35.2046 25.0346 35.2871 25.0346 35.3732C25.0346 35.4592 25.0004 35.5417 24.9396 35.6025C24.8788 35.6633 24.7963 35.6975 24.7103 35.6975Z" fill="white"/>
<path d="M18.266 35.6979H13.9849C13.8026 35.6977 13.6278 35.6252 13.4989 35.4963C13.37 35.3674 13.2975 35.1927 13.2973 35.0103V16.9293C13.2975 16.747 13.37 16.5722 13.4989 16.4433C13.6278 16.3144 13.8026 16.2419 13.9849 16.2417H16.8584C16.9444 16.2417 17.0269 16.2759 17.0877 16.3367C17.1485 16.3975 17.1827 16.48 17.1827 16.566C17.1827 16.652 17.1485 16.7345 17.0877 16.7954C17.0269 16.8562 16.9444 16.8903 16.8584 16.8903H13.9849C13.9797 16.8903 13.9747 16.8913 13.9699 16.8932C13.9652 16.8952 13.9609 16.898 13.9573 16.9017C13.9536 16.9053 13.9508 16.9096 13.9488 16.9143C13.9469 16.9191 13.9459 16.9241 13.946 16.9293V35.0103C13.9459 35.0155 13.9469 35.0206 13.9488 35.0253C13.9508 35.03 13.9536 35.0343 13.9573 35.038C13.9609 35.0416 13.9652 35.0445 13.9699 35.0464C13.9747 35.0483 13.9797 35.0493 13.9849 35.0493H18.266C18.352 35.0493 18.4345 35.0834 18.4953 35.1443C18.5561 35.2051 18.5903 35.2876 18.5903 35.3736C18.5903 35.4596 18.5561 35.5421 18.4953 35.6029C18.4345 35.6637 18.352 35.6979 18.266 35.6979Z" fill="white"/>
<path d="M21.4768 35.6975H20.5362C20.4502 35.6975 20.3677 35.6633 20.3069 35.6025C20.2461 35.5417 20.2119 35.4592 20.2119 35.3732C20.2119 35.2871 20.2461 35.2046 20.3069 35.1438C20.3677 35.083 20.4502 35.0488 20.5362 35.0488H21.4768C21.5628 35.0488 21.6453 35.083 21.7061 35.1438C21.7669 35.2046 21.8011 35.2871 21.8011 35.3732C21.8011 35.4592 21.7669 35.5417 21.7061 35.6025C21.6453 35.6633 21.5628 35.6975 21.4768 35.6975Z" fill="white"/>
<path d="M28.1773 35.6979H26.9805C26.8945 35.6979 26.812 35.6637 26.7512 35.6029C26.6904 35.5421 26.6562 35.4596 26.6562 35.3736C26.6562 35.2876 26.6904 35.2051 26.7512 35.1443C26.812 35.0834 26.8945 35.0493 26.9805 35.0493H28.1773C28.1824 35.0493 28.1875 35.0483 28.1922 35.0464C28.197 35.0445 28.2013 35.0416 28.2049 35.038C28.2085 35.0343 28.2114 35.03 28.2133 35.0253C28.2153 35.0206 28.2163 35.0155 28.2162 35.0103V16.9293C28.2163 16.9241 28.2153 16.9191 28.2133 16.9143C28.2114 16.9096 28.2085 16.9053 28.2049 16.9017C28.2013 16.898 28.197 16.8952 28.1922 16.8932C28.1875 16.8913 28.1824 16.8903 28.1773 16.8903H25.3038C25.2178 16.8903 25.1353 16.8562 25.0745 16.7954C25.0136 16.7345 24.9795 16.652 24.9795 16.566C24.9795 16.48 25.0136 16.3975 25.0745 16.3367C25.1353 16.2759 25.2178 16.2417 25.3038 16.2417H28.1773C28.3596 16.2419 28.5344 16.3144 28.6633 16.4433C28.7922 16.5722 28.8647 16.747 28.8649 16.9293V35.0103C28.8647 35.1927 28.7922 35.3674 28.6633 35.4963C28.5344 35.6252 28.3596 35.6977 28.1773 35.6979Z" fill="white"/>
<path d="M25.3038 17.8616H16.8584C16.7724 17.8616 16.6899 17.8274 16.6291 17.7666C16.5683 17.7057 16.5341 17.6232 16.5341 17.5372V15.6075C16.5341 15.5215 16.5683 15.439 16.6291 15.3782C16.6899 15.3173 16.7724 15.2832 16.8584 15.2832H18.6163C18.6604 14.6598 18.9391 14.0764 19.3963 13.6504C19.8535 13.2244 20.4552 12.9875 21.0801 12.9875C21.7051 12.9875 22.3067 13.2244 22.764 13.6504C23.2212 14.0764 23.4999 14.6598 23.544 15.2832H25.3038C25.3898 15.2832 25.4723 15.3173 25.5332 15.3782C25.594 15.439 25.6281 15.5215 25.6281 15.6075V17.5372C25.6281 17.6232 25.594 17.7057 25.5332 17.7666C25.4723 17.8274 25.3898 17.8616 25.3038 17.8616ZM17.1827 17.2129H24.9795V15.9318H23.2249C23.1389 15.9318 23.0564 15.8977 22.9956 15.8368C22.9347 15.776 22.9006 15.6935 22.9006 15.6075V15.4551C22.9006 14.9721 22.7087 14.5089 22.3672 14.1674C22.0257 13.8258 21.5625 13.634 21.0795 13.634C20.5965 13.634 20.1333 13.8258 19.7918 14.1674C19.4503 14.5089 19.2584 14.9721 19.2584 15.4551V15.6075C19.2584 15.6935 19.2242 15.776 19.1634 15.8368C19.1026 15.8977 19.0201 15.9318 18.9341 15.9318H17.1827V17.2129Z" fill="white"/>
<path d="M26.6066 21.913H20.1201C20.0341 21.913 19.9516 21.8789 19.8908 21.8181C19.83 21.7572 19.7958 21.6747 19.7958 21.5887C19.7958 21.5027 19.83 21.4202 19.8908 21.3594C19.9516 21.2986 20.0341 21.2644 20.1201 21.2644H26.6066C26.6926 21.2644 26.7751 21.2986 26.836 21.3594C26.8968 21.4202 26.931 21.5027 26.931 21.5887C26.931 21.6747 26.8968 21.7572 26.836 21.8181C26.7751 21.8789 26.6926 21.913 26.6066 21.913Z" fill="white"/>
<path d="M26.6066 25.3194H20.1201C20.0341 25.3194 19.9516 25.2853 19.8908 25.2244C19.83 25.1636 19.7958 25.0811 19.7958 24.9951C19.7958 24.9091 19.83 24.8266 19.8908 24.7658C19.9516 24.7049 20.0341 24.6708 20.1201 24.6708H26.6066C26.6926 24.6708 26.7751 24.7049 26.836 24.7658C26.8968 24.8266 26.931 24.9091 26.931 24.9951C26.931 25.0811 26.8968 25.1636 26.836 25.2244C26.7751 25.2853 26.6926 25.3194 26.6066 25.3194Z" fill="white"/>
<path d="M26.6066 28.7254H20.1201C20.0341 28.7254 19.9516 28.6913 19.8908 28.6304C19.83 28.5696 19.7958 28.4871 19.7958 28.4011C19.7958 28.3151 19.83 28.2326 19.8908 28.1718C19.9516 28.111 20.0341 28.0768 20.1201 28.0768H26.6066C26.6926 28.0768 26.7751 28.111 26.836 28.1718C26.8968 28.2326 26.931 28.3151 26.931 28.4011C26.931 28.4871 26.8968 28.5696 26.836 28.6304C26.7751 28.6913 26.6926 28.7254 26.6066 28.7254Z" fill="white"/>
<path d="M26.6066 32.1317H20.1201C20.0341 32.1317 19.9516 32.0976 19.8908 32.0368C19.83 31.9759 19.7958 31.8934 19.7958 31.8074C19.7958 31.7214 19.83 31.6389 19.8908 31.5781C19.9516 31.5173 20.0341 31.4831 20.1201 31.4831H26.6066C26.6926 31.4831 26.7751 31.5173 26.836 31.5781C26.8968 31.6389 26.931 31.7214 26.931 31.8074C26.931 31.8934 26.8968 31.9759 26.836 32.0368C26.7751 32.0976 26.6926 32.1317 26.6066 32.1317Z" fill="white"/>
<path d="M16.2555 22.8191C16.1695 22.8191 16.087 22.7849 16.0262 22.724L15.3263 22.0241C15.2953 21.9942 15.2706 21.9584 15.2536 21.9189C15.2366 21.8793 15.2277 21.8367 15.2273 21.7937C15.2269 21.7506 15.2351 21.7079 15.2514 21.6681C15.2678 21.6282 15.2918 21.592 15.3223 21.5615C15.3527 21.5311 15.389 21.507 15.4288 21.4907C15.4687 21.4744 15.5114 21.4662 15.5544 21.4666C15.5975 21.4669 15.6401 21.4759 15.6796 21.4929C15.7192 21.5099 15.755 21.5346 15.7849 21.5656L16.2555 22.0358L17.8512 20.4405C17.9123 20.3814 17.9943 20.3487 18.0793 20.3494C18.1643 20.3502 18.2457 20.3843 18.3058 20.4444C18.3659 20.5046 18.4001 20.5859 18.4008 20.6709C18.4015 20.756 18.3688 20.8379 18.3098 20.8991L16.4848 22.724C16.424 22.7849 16.3415 22.8191 16.2555 22.8191Z" fill="white"/>
<path d="M16.2555 26.3375C16.1695 26.3375 16.087 26.3033 16.0262 26.2425L15.3263 25.5426C15.2717 25.4806 15.2429 25.4002 15.2456 25.3177C15.2483 25.2352 15.2824 25.1569 15.3408 25.0986C15.3993 25.0403 15.4778 25.0066 15.5603 25.0041C15.6428 25.0017 15.7231 25.0309 15.7849 25.0856L16.2555 25.5562L17.8512 23.9605C17.9123 23.9015 17.9942 23.8688 18.0793 23.8695C18.1643 23.8703 18.2457 23.9044 18.3058 23.9645C18.3659 24.0246 18.4 24.106 18.4008 24.191C18.4015 24.276 18.3688 24.358 18.3097 24.4191L16.4848 26.2441C16.4237 26.3043 16.3412 26.3379 16.2555 26.3375Z" fill="white"/>
<path d="M16.2555 29.5321C16.2129 29.5322 16.1706 29.5239 16.1313 29.5076C16.0919 29.4912 16.0562 29.4673 16.0262 29.4371L15.3263 28.7372C15.2672 28.676 15.2345 28.5941 15.2352 28.509C15.236 28.424 15.2701 28.3427 15.3302 28.2825C15.3904 28.2224 15.4717 28.1883 15.5567 28.1876C15.6418 28.1868 15.7237 28.2195 15.7849 28.2786L16.2555 28.7508L17.8511 27.1551C17.9123 27.0961 17.9942 27.0634 18.0793 27.0641C18.1643 27.0648 18.2456 27.0989 18.3058 27.1591C18.3659 27.2192 18.4 27.3006 18.4008 27.3856C18.4015 27.4706 18.3688 27.5526 18.3097 27.6137L16.4848 29.4387C16.4546 29.4686 16.4188 29.4923 16.3794 29.5083C16.3401 29.5243 16.298 29.5324 16.2555 29.5321Z" fill="white"/>
<path d="M16.2555 33.0504C16.2129 33.0505 16.1706 33.0421 16.1313 33.0258C16.0919 33.0095 16.0562 32.9856 16.0262 32.9553L15.3263 32.2558C15.2672 32.1946 15.2345 32.1127 15.2352 32.0276C15.236 31.9426 15.2701 31.8613 15.3302 31.8011C15.3904 31.741 15.4717 31.7069 15.5567 31.7061C15.6418 31.7054 15.7237 31.7381 15.7849 31.7972L16.2555 32.2674L17.8511 30.6721C17.9123 30.613 17.9942 30.5803 18.0793 30.5811C18.1643 30.5818 18.2456 30.6159 18.3058 30.676C18.3659 30.7362 18.4 30.8175 18.4008 30.9026C18.4015 30.9876 18.3688 31.0695 18.3097 31.1307L16.4848 32.9553C16.4547 32.9856 16.419 33.0095 16.3796 33.0258C16.3403 33.0421 16.2981 33.0505 16.2555 33.0504Z" fill="white"/>
<path d="M34.3784 32.1531H30.7972C30.7112 32.1531 30.6287 32.1189 30.5679 32.0581C30.507 31.9973 30.4729 31.9148 30.4729 31.8288V20.2018C30.473 20.0105 30.5491 19.8272 30.6843 19.6919C30.8196 19.5567 31.0029 19.4806 31.1942 19.4805H33.9814C34.1727 19.4806 34.356 19.5567 34.4913 19.6919C34.6265 19.8272 34.7025 20.0105 34.7027 20.2018V31.8288C34.7027 31.9148 34.6685 31.9973 34.6077 32.0581C34.5469 32.1189 34.4644 32.1531 34.3784 32.1531ZM31.1215 31.5045H34.0541V20.2018C34.0541 20.1825 34.0464 20.164 34.0328 20.1504C34.0192 20.1368 34.0007 20.1291 33.9814 20.1291H31.1942C31.1749 20.1291 31.1564 20.1368 31.1428 20.1504C31.1292 20.164 31.1215 20.1825 31.1215 20.2018V31.5045Z" fill="white"/>
<path d="M32.5878 35.6994C32.5278 35.6994 32.469 35.6828 32.418 35.6513C32.3669 35.6199 32.3255 35.5749 32.2985 35.5214L30.5076 31.9752C30.4826 31.9258 30.4707 31.8707 30.473 31.8154C30.4753 31.76 30.4918 31.7062 30.5208 31.659C30.5499 31.6118 30.5905 31.5728 30.6389 31.5458C30.6873 31.5188 30.7418 31.5046 30.7972 31.5046H34.3784C34.4338 31.5046 34.4883 31.5188 34.5367 31.5458C34.5851 31.5728 34.6257 31.6118 34.6548 31.659C34.6838 31.7062 34.7003 31.76 34.7026 31.8154C34.7049 31.8707 34.693 31.9258 34.668 31.9752L32.8774 35.5214C32.8503 35.575 32.8089 35.62 32.7578 35.6514C32.7067 35.6828 32.6478 35.6995 32.5878 35.6994ZM31.3229 32.1533L32.5878 34.6558L33.8527 32.1533H31.3229Z" fill="white"/>
<path d="M34.3784 23.44H30.7972C30.7112 23.44 30.6287 23.4059 30.5679 23.345C30.507 23.2842 30.4729 23.2017 30.4729 23.1157C30.4729 23.0297 30.507 22.9472 30.5679 22.8864C30.6287 22.8256 30.7112 22.7914 30.7972 22.7914H34.3784C34.4644 22.7914 34.5469 22.8256 34.6077 22.8864C34.6685 22.9472 34.7027 23.0297 34.7027 23.1157C34.7027 23.2017 34.6685 23.2842 34.6077 23.345C34.5469 23.4059 34.4644 23.44 34.3784 23.44Z" fill="white"/>
<path d="M32.5878 32.153C32.5018 32.153 32.4193 32.1188 32.3585 32.058C32.2976 31.9972 32.2635 31.9147 32.2635 31.8287V23.1157C32.2635 23.0297 32.2976 22.9472 32.3585 22.8864C32.4193 22.8256 32.5018 22.7914 32.5878 22.7914C32.6738 22.7914 32.7563 22.8256 32.8171 22.8864C32.8779 22.9472 32.9121 23.0297 32.9121 23.1157V31.8287C32.9121 31.9147 32.8779 31.9972 32.8171 32.058C32.7563 32.1188 32.6738 32.153 32.5878 32.153Z" fill="white"/>
</g>
<defs>
<clipPath id="clip0_1_1359">
<rect width="24" height="24" fill="white" transform="translate(12 12.3398)"/>
</clipPath>
</defs>
</svg>
