<svg width="48" height="49" viewBox="0 0 48 49" fill="none" xmlns="http://www.w3.org/2000/svg">
<circle cx="24" cy="24.3398" r="24" fill="#008DA6"/>
<g clip-path="url(#clip0_1_1383)">
<path d="M12.9729 22.0696C12.9052 22.0696 12.8391 22.0483 12.7841 22.0088C12.729 21.9692 12.6877 21.9135 12.666 21.8493C12.6443 21.7851 12.6432 21.7157 12.663 21.6508C12.6827 21.586 12.7222 21.529 12.7761 21.4878L16.3436 18.7599C16.4121 18.7095 16.4976 18.688 16.5818 18.7C16.6659 18.7121 16.742 18.7567 16.7936 18.8242C16.8452 18.8918 16.8682 18.9769 16.8577 19.0612C16.8472 19.1456 16.804 19.2224 16.7374 19.2753L13.1698 22.0028C13.1133 22.0462 13.0441 22.0697 12.9729 22.0696Z" fill="white"/>
<path d="M35.027 35.6914H28.0346C27.9485 35.6914 27.8661 35.6572 27.8052 35.5964C27.7444 35.5355 27.7102 35.453 27.7102 35.367C27.7102 35.281 27.7444 35.1985 27.8052 35.1377C27.8661 35.0769 27.9485 35.0427 28.0346 35.0427H34.7027V21.7454C34.7027 21.6594 34.7368 21.5769 34.7977 21.5161C34.8585 21.4553 34.941 21.4211 35.027 21.4211C35.113 21.4211 35.1955 21.4553 35.2563 21.5161C35.3171 21.5769 35.3513 21.6594 35.3513 21.7454V35.367C35.3513 35.453 35.3171 35.5355 35.2563 35.5964C35.1955 35.6572 35.113 35.6914 35.027 35.6914Z" fill="white"/>
<path d="M22.5307 35.6913H21.587C21.5009 35.6913 21.4184 35.6571 21.3576 35.5963C21.2968 35.5354 21.2626 35.4529 21.2626 35.3669C21.2626 35.2809 21.2968 35.1984 21.3576 35.1376C21.4184 35.0768 21.5009 35.0426 21.587 35.0426H22.5307C22.6168 35.0426 22.6992 35.0768 22.7601 35.1376C22.8209 35.1984 22.8551 35.2809 22.8551 35.3669C22.8551 35.4529 22.8209 35.5354 22.7601 35.5963C22.6992 35.6571 22.6168 35.6913 22.5307 35.6913Z" fill="white"/>
<path d="M19.3167 35.6914H12.9729C12.8869 35.6914 12.8044 35.6572 12.7436 35.5964C12.6828 35.5355 12.6486 35.453 12.6486 35.367V21.7454C12.6486 21.6594 12.6828 21.5769 12.7436 21.5161C12.8044 21.4553 12.8869 21.4211 12.9729 21.4211C13.059 21.4211 13.1415 21.4553 13.2023 21.5161C13.2631 21.5769 13.2973 21.6594 13.2973 21.7454V35.0427H19.3167C19.4027 35.0427 19.4852 35.0769 19.5461 35.1377C19.6069 35.1985 19.6411 35.281 19.6411 35.367C19.6411 35.453 19.6069 35.5355 19.5461 35.5964C19.4852 35.6572 19.4027 35.6914 19.3167 35.6914Z" fill="white"/>
<path d="M25.7643 35.6913H24.8011C24.7151 35.6913 24.6326 35.6571 24.5718 35.5963C24.5109 35.5354 24.4768 35.4529 24.4768 35.3669C24.4768 35.2809 24.5109 35.1984 24.5718 35.1376C24.6326 35.0768 24.7151 35.0426 24.8011 35.0426H25.7643C25.8503 35.0426 25.9328 35.0768 25.9937 35.1376C26.0545 35.1984 26.0887 35.2809 26.0887 35.3669C26.0887 35.4529 26.0545 35.5354 25.9937 35.5963C25.9328 35.6571 25.8503 35.6913 25.7643 35.6913Z" fill="white"/>
<path d="M26.8083 15.7841C26.7373 15.7841 26.6682 15.7607 26.6118 15.7176L24 13.7211L21.3882 15.7176C21.3199 15.7699 21.2336 15.7928 21.1483 15.7815C21.063 15.7701 20.9858 15.7253 20.9335 15.657C20.8813 15.5886 20.8583 15.5023 20.8697 15.4171C20.881 15.3318 20.9258 15.2545 20.9942 15.2023L23.8031 13.0552C23.8597 13.012 23.9289 12.9886 24 12.9886C24.0711 12.9886 24.1403 13.012 24.1969 13.0552L27.0058 15.2023C27.0597 15.2435 27.0993 15.3006 27.119 15.3655C27.1387 15.4304 27.1376 15.4998 27.1158 15.564C27.094 15.6283 27.0526 15.684 26.9974 15.7235C26.9423 15.763 26.8761 15.7842 26.8083 15.7841Z" fill="white"/>
<path d="M35.027 22.0696C34.9558 22.0696 34.8866 22.0461 34.8302 22.0027L31.2626 19.2752C31.2007 19.2209 31.1617 19.1451 31.1536 19.0632C31.1455 18.9813 31.1688 18.8993 31.2189 18.8339C31.269 18.7686 31.3421 18.7247 31.4233 18.7113C31.5045 18.6978 31.5878 18.7158 31.6563 18.7615L35.2239 21.4893C35.2771 21.5307 35.316 21.5876 35.3353 21.6522C35.3547 21.7167 35.3534 21.7857 35.3318 21.8494C35.3101 21.9132 35.2692 21.9687 35.2146 22.0082C35.1599 22.0476 35.0944 22.0691 35.027 22.0696Z" fill="white"/>
<path d="M24 29.8992C22.9452 29.9005 21.9229 29.5346 21.1086 28.8643L12.7667 21.9945C12.7003 21.9398 12.6583 21.8609 12.65 21.7753C12.6418 21.6896 12.6678 21.6042 12.7226 21.5378C12.7773 21.4714 12.8561 21.4295 12.9417 21.4212C13.0274 21.4129 13.1128 21.439 13.1792 21.4937L21.5211 28.3635C22.2199 28.9371 23.0959 29.2506 24 29.2506C24.904 29.2506 25.78 28.9371 26.4788 28.3635L34.8207 21.4937C34.8536 21.4666 34.8915 21.4463 34.9322 21.4338C34.973 21.4214 35.0158 21.4171 35.0582 21.4212C35.1006 21.4253 35.1418 21.4377 35.1794 21.4577C35.217 21.4777 35.2503 21.5049 35.2774 21.5378C35.3045 21.5707 35.3248 21.6086 35.3372 21.6493C35.3497 21.6901 35.354 21.7329 35.3499 21.7753C35.3458 21.8177 35.3334 21.8589 35.3134 21.8965C35.2934 21.9341 35.2661 21.9674 35.2333 21.9945L26.8913 28.8643C26.077 29.5346 25.0547 29.9005 24 29.8992Z" fill="white"/>
<path d="M35.027 35.6912C34.9517 35.6913 34.8788 35.6651 34.8207 35.6173L26.5504 28.8065C26.5176 28.7794 26.4903 28.7461 26.4703 28.7085C26.4503 28.6709 26.4379 28.6297 26.4338 28.5873C26.4297 28.5449 26.434 28.5021 26.4465 28.4613C26.4589 28.4206 26.4792 28.3827 26.5063 28.3498C26.5334 28.3169 26.5667 28.2897 26.6043 28.2697C26.6419 28.2497 26.6831 28.2373 26.7255 28.2332C26.7679 28.2291 26.8107 28.2334 26.8515 28.2458C26.8922 28.2583 26.9301 28.2786 26.963 28.3057L35.2332 35.1165C35.2848 35.159 35.322 35.2164 35.3398 35.2808C35.3575 35.3452 35.3549 35.4136 35.3324 35.4765C35.3098 35.5394 35.2683 35.5938 35.2137 35.6322C35.159 35.6706 35.0938 35.6913 35.027 35.6912Z" fill="white"/>
<path d="M12.973 35.6912C12.9061 35.6913 12.8409 35.6706 12.7863 35.6322C12.7316 35.5938 12.6902 35.5394 12.6676 35.4765C12.645 35.4136 12.6424 35.3452 12.6602 35.2808C12.6779 35.2164 12.7151 35.159 12.7667 35.1165L21.037 28.3057C21.1034 28.251 21.1888 28.2249 21.2744 28.2332C21.3601 28.2415 21.4389 28.2834 21.4936 28.3498C21.5483 28.4162 21.5744 28.5016 21.5661 28.5873C21.5579 28.6729 21.5159 28.7518 21.4495 28.8065L13.1792 35.6173C13.1212 35.6651 13.0482 35.6913 12.973 35.6912Z" fill="white"/>
<path d="M31.4595 25.0079C31.3735 25.0079 31.291 24.9737 31.2302 24.9129C31.1693 24.8521 31.1352 24.7696 31.1352 24.6836V15.7857H16.8649V24.6836C16.8649 24.7696 16.8307 24.8521 16.7699 24.9129C16.7091 24.9737 16.6266 25.0079 16.5406 25.0079C16.4546 25.0079 16.3721 24.9737 16.3112 24.9129C16.2504 24.8521 16.2162 24.7696 16.2162 24.6836V15.4614C16.2162 15.3754 16.2504 15.2929 16.3112 15.2321C16.3721 15.1713 16.4546 15.1371 16.5406 15.1371H31.4595C31.5455 15.1371 31.628 15.1713 31.6888 15.2321C31.7496 15.2929 31.7838 15.3754 31.7838 15.4614V24.6836C31.7838 24.7696 31.7496 24.8521 31.6888 24.9129C31.628 24.9737 31.5455 25.0079 31.4595 25.0079Z" fill="white"/>
<path d="M24 21.404C23.6935 21.404 23.394 21.3132 23.1392 21.1429C22.8844 20.9727 22.6859 20.7307 22.5686 20.4476C22.4513 20.1645 22.4206 19.853 22.4804 19.5525C22.5402 19.2519 22.6878 18.9759 22.9044 18.7592C23.1211 18.5425 23.3972 18.395 23.6977 18.3352C23.9982 18.2754 24.3097 18.3061 24.5928 18.4234C24.8759 18.5406 25.1179 18.7392 25.2881 18.994C25.4584 19.2488 25.5493 19.5483 25.5493 19.8547C25.5493 19.9407 25.5151 20.0232 25.4543 20.0841C25.3934 20.1449 25.3109 20.179 25.2249 20.179C25.1389 20.179 25.0564 20.1449 24.9956 20.0841C24.9348 20.0232 24.9006 19.9407 24.9006 19.8547C24.9006 19.6766 24.8478 19.5025 24.7488 19.3543C24.6499 19.2062 24.5092 19.0908 24.3446 19.0226C24.18 18.9545 23.999 18.9366 23.8242 18.9714C23.6495 19.0061 23.4891 19.0919 23.3631 19.2179C23.2371 19.3438 23.1514 19.5043 23.1166 19.679C23.0819 19.8537 23.0997 20.0348 23.1679 20.1994C23.236 20.364 23.3515 20.5046 23.4996 20.6036C23.6477 20.7025 23.8218 20.7554 24 20.7554C24.086 20.7554 24.1685 20.7895 24.2293 20.8504C24.2901 20.9112 24.3243 20.9937 24.3243 21.0797C24.3243 21.1657 24.2901 21.2482 24.2293 21.309C24.1685 21.3699 24.086 21.404 24 21.404Z" fill="white"/>
<path d="M24 23.8532C23.5892 23.8528 23.1954 23.6894 22.9049 23.399C22.6144 23.1085 22.4511 22.7147 22.4507 22.3039C22.4507 22.2179 22.4848 22.1354 22.5456 22.0746C22.6065 22.0138 22.689 21.9796 22.775 21.9796C22.861 21.9796 22.9435 22.0138 23.0043 22.0746C23.0651 22.1354 23.0993 22.2179 23.0993 22.3039C23.0992 22.4821 23.1519 22.6563 23.2508 22.8045C23.3497 22.9527 23.4903 23.0682 23.6548 23.1365C23.8194 23.2047 24.0005 23.2227 24.1753 23.188C24.35 23.1533 24.5106 23.0676 24.6366 22.9416C24.7626 22.8157 24.8484 22.6552 24.8833 22.4805C24.9181 22.3058 24.9003 22.1247 24.8321 21.96C24.764 21.7954 24.6485 21.6547 24.5004 21.5557C24.3523 21.4568 24.1781 21.4039 24 21.4039C23.9139 21.4039 23.8314 21.3697 23.7706 21.3089C23.7098 21.2481 23.6756 21.1656 23.6756 21.0796C23.6756 20.9936 23.7098 20.9111 23.7706 20.8503C23.8314 20.7894 23.9139 20.7553 24 20.7553C24.206 20.7511 24.4109 20.788 24.6025 20.8639C24.7941 20.9399 24.9687 21.0533 25.1159 21.1976C25.2631 21.3418 25.3801 21.514 25.46 21.704C25.5398 21.8941 25.581 22.0981 25.581 22.3042C25.581 22.5104 25.5398 22.7144 25.46 22.9044C25.3801 23.0945 25.2631 23.2667 25.1159 23.4109C24.9687 23.5552 24.7941 23.6686 24.6025 23.7445C24.4109 23.8205 24.206 23.8574 24 23.8532Z" fill="white"/>
<path d="M24.0019 24.4752C23.9159 24.4752 23.8334 24.441 23.7726 24.3802C23.7118 24.3194 23.6776 24.2369 23.6776 24.1509V23.5314C23.6776 23.4454 23.7118 23.3629 23.7726 23.3021C23.8334 23.2413 23.9159 23.2071 24.0019 23.2071C24.088 23.2071 24.1705 23.2413 24.2313 23.3021C24.2921 23.3629 24.3263 23.4454 24.3263 23.5314V24.1509C24.3263 24.2369 24.2921 24.3194 24.2313 24.3802C24.1705 24.441 24.088 24.4752 24.0019 24.4752Z" fill="white"/>
<path d="M24.0019 18.9559C23.9159 18.9559 23.8334 18.9217 23.7726 18.8609C23.7118 18.8001 23.6776 18.7176 23.6776 18.6316V18.0085C23.6776 17.9225 23.7118 17.84 23.7726 17.7792C23.8334 17.7184 23.9159 17.6842 24.0019 17.6842C24.088 17.6842 24.1705 17.7184 24.2313 17.7792C24.2921 17.84 24.3263 17.9225 24.3263 18.0085V18.6316C24.3263 18.7176 24.2921 18.8001 24.2313 18.8609C24.1705 18.9217 24.088 18.9559 24.0019 18.9559Z" fill="white"/>
</g>
<defs>
<clipPath id="clip0_1_1383">
<rect width="24" height="24" fill="white" transform="translate(12 12.3398)"/>
</clipPath>
</defs>
</svg>
